<?xml version="1.0" standalone="no"?>
<!DOCTYPE svg PUBLIC "-//W3C//DTD SVG 20010904//EN"
 "http://www.w3.org/TR/2001/REC-SVG-20010904/DTD/svg10.dtd">
<svg version="1.0" xmlns="http://www.w3.org/2000/svg"
 width="926.000000pt" height="438.000000pt" viewBox="0 0 926.000000 438.000000"
 preserveAspectRatio="xMidYMid meet">
<metadata>
Created by potrace 1.15, written by Peter Selinger 2001-2017
</metadata>
<g transform="translate(0.000000,438.000000) scale(0.100000,-0.100000)"
fill="#000000" stroke="none">
<path d="M0 2190 l0 -2190 530 0 530 0 0 2060 0 2060 4100 0 4100 0 0 75 c0
43 -4 75 -10 75 -5 0 -10 -7 -10 -15 0 -10 -9 -15 -27 -14 -28 0 -28 1 -5 11
25 13 29 28 6 28 -9 0 -12 -5 -8 -12 5 -8 2 -9 -9 -5 -11 4 -17 1 -17 -8 0 -8
-9 -15 -19 -15 -11 0 -23 -4 -26 -10 -3 -5 -14 -10 -23 -10 -15 0 -15 2 -2 10
13 9 13 10 0 11 -8 1 -18 1 -22 0 -5 0 -8 6 -8 14 0 8 -4 15 -10 15 -5 0 -10
-7 -10 -15 0 -19 -56 -21 -63 -2 -9 23 11 57 29 50 16 -6 16 -7 -2 -14 -10 -4
10 -6 45 -3 36 2 69 9 74 16 7 11 10 11 14 0 2 -6 9 -10 14 -6 5 3 9 1 9 -4 0
-13 43 -2 52 12 5 8 8 7 8 -1 0 -7 5 -13 10 -13 6 0 10 20 10 45 l0 45 -4630
0 -4630 0 0 -2190z m7010 2101 c0 -4 24 -6 54 -4 50 3 55 1 59 -19 4 -23 4
-23 12 -2 6 19 15 21 78 22 40 1 93 2 119 2 26 1 52 -1 58 -5 5 -3 10 -2 10 3
0 6 11 9 25 8 14 0 25 -3 25 -6 0 -3 21 -5 48 -5 41 0 47 -3 50 -22 2 -13 -2
-23 -8 -23 -7 0 -10 7 -7 15 4 8 2 17 -3 20 -6 4 -10 -2 -10 -13 0 -18 -8 -19
-105 -19 -83 -1 -105 2 -105 13 0 8 -4 14 -10 14 -5 0 -10 -7 -10 -15 0 -23
-80 -21 -81 3 -1 16 -2 16 -6 0 -2 -10 -9 -18 -14 -18 -5 0 -10 8 -10 18 -1
16 -2 16 -6 0 -4 -16 -17 -18 -109 -16 l-104 1 0 28 c0 15 6 29 13 32 14 5 37
-2 37 -12z m-1662 -3 c9 -9 12 -9 12 0 0 7 5 12 10 12 6 0 10 -7 10 -15 0 -8
5 -15 11 -15 5 0 8 4 5 9 -4 5 12 9 34 8 24 -1 45 -8 50 -17 9 -13 10 -13 10
1 0 13 18 16 128 15 70 -1 143 2 161 6 42 8 56 1 40 -19 -10 -12 -10 -16 2
-24 10 -8 8 -9 -11 -7 -14 2 -28 11 -32 23 -6 19 -6 19 -13 -2 -6 -19 -14 -23
-46 -21 -32 1 -39 5 -40 22 -1 18 -2 18 -9 -4 -5 -17 -8 -19 -9 -7 -1 21 -21
23 -21 2 0 -10 -10 -15 -29 -15 -17 0 -33 -4 -36 -10 -3 -5 -14 -10 -23 -10
-15 0 -15 2 -2 10 11 7 0 10 -38 10 -29 0 -51 4 -48 8 2 4 1 14 -5 22 -7 12
-9 10 -9 -7 0 -20 -5 -23 -39 -23 -29 0 -40 4 -43 17 -3 16 -4 16 -20 0 -23
-24 -28 -21 -28 13 0 32 9 37 28 18z"/>
<path d="M8718 3285 c-29 -26 -56 -32 -76 -15 -9 7 -9 7 -2 -2 6 -7 10 -18 10
-26 0 -8 8 -21 18 -28 13 -11 14 -13 1 -9 -10 4 -16 0 -16 -10 0 -8 4 -15 9
-15 4 0 8 -7 8 -15 0 -8 6 -12 14 -9 8 3 17 0 22 -7 5 -8 3 -10 -7 -4 -12 7
-12 6 -1 -7 7 -9 22 -15 33 -13 11 2 19 -2 19 -10 0 -9 6 -12 18 -8 26 9 52
34 46 44 -3 5 -2 15 3 22 15 24 10 35 -32 80 -23 25 -40 49 -37 52 3 3 3 5 1
5 -2 0 -16 -11 -31 -25z"/>
<path d="M5640 2170 l0 -290 715 0 715 0 0 290 0 290 -715 0 -715 0 0 -290z
m1380 0 l0 -240 -665 0 -665 0 0 240 0 240 665 0 665 0 0 -240z"/>
</g>
</svg>
