<?xml version="1.0" standalone="no"?>
<!DOCTYPE svg PUBLIC "-//W3C//DTD SVG 20010904//EN"
 "http://www.w3.org/TR/2001/REC-SVG-20010904/DTD/svg10.dtd">
<svg version="1.0" xmlns="http://www.w3.org/2000/svg"
 width="926.000000pt" height="438.000000pt" viewBox="0 0 926.000000 438.000000"
 preserveAspectRatio="xMidYMid meet">

<g transform="translate(0.000000,438.000000) scale(0.100000,-0.100000)"
fill="#000000" stroke="none">
<path d="M0 2190 l0 -2190 533 2 532 3 0 2053 0 2052 4097 0 4098 0 -1 135 0
135 -4630 0 -4629 0 0 -2190z m90 2118 c0 -4 -7 -8 -15 -8 -24 0 -18 -45 8
-58 21 -11 21 -12 -8 -9 -26 2 -30 6 -33 36 -2 19 2 37 8 41 15 9 40 8 40 -2z
m74 6 c17 -7 21 -50 7 -72 -5 -8 -19 -12 -32 -9 l-24 4 23 8 c14 5 22 15 22
31 0 18 -6 24 -22 24 -19 0 -20 2 -8 10 18 12 15 11 34 4z m4056 2 c0 -2 -8
-10 -17 -17 -16 -13 -17 -12 -4 4 13 16 21 21 21 13z m39 -40 c-3 -3 -11 5
-18 17 -13 21 -12 21 5 5 10 -10 16 -20 13 -22z m-3024 15 c3 -5 2 -12 -3 -15
-5 -3 -9 1 -9 9 0 17 3 19 12 6z m245 -7 c0 -8 -5 -12 -10 -9 -6 4 -8 11 -5
16 9 14 15 11 15 -7z m3587 -31 c-3 -10 -5 -2 -5 17 0 19 2 27 5 18 2 -10 2
-26 0 -35z m30 32 c-4 -8 -2 -17 3 -20 4 -3 11 1 13 7 4 8 6 7 6 -3 1 -9 -7
-19 -17 -21 -13 -4 -17 1 -17 24 -1 15 3 28 8 28 5 0 7 -7 4 -15z m40 -17 c-3
-7 -5 -2 -5 12 0 14 2 19 5 13 2 -7 2 -19 0 -25z m227 21 c20 16 21 5 2 -14
-14 -14 -36 -2 -36 20 0 5 4 4 9 -4 8 -12 12 -12 25 -2z m451 -23 c0 -14 -3
-22 -7 -20 -4 3 -8 17 -8 31 0 32 13 22 15 -11z m269 27 c-5 -5 -12 -12 -16
-18 -4 -6 -8 -2 -8 8 0 9 7 17 17 17 9 0 12 -3 7 -7z m268 -23 c5 -36 -8 -41
-14 -5 -4 21 -1 35 8 35 1 0 4 -13 6 -30z m255 8 c-3 -8 -6 -5 -6 6 -1 11 2
17 5 13 3 -3 4 -12 1 -19z m110 0 c-3 -8 -6 -5 -6 6 -1 11 2 17 5 13 3 -3 4
-12 1 -19z m289 7 c4 -8 11 -12 18 -8 6 3 2 -3 -8 -15 -11 -12 -24 -22 -30
-21 -6 0 -6 3 2 6 17 7 15 43 -2 43 -8 0 -17 -12 -19 -27 -4 -26 -4 -26 -6 5
-1 26 3 32 19 32 11 0 23 -7 26 -15z m331 -32 c-3 -10 -5 -2 -5 17 0 19 2 27
5 18 2 -10 2 -26 0 -35z m80 25 c-3 -8 -6 -5 -6 6 -1 11 2 17 5 13 3 -3 4 -12
1 -19z m563 5 c0 -9 -3 -13 -7 -10 -3 4 -13 1 -22 -5 -10 -8 -9 -4 3 10 23 26
26 27 26 5z m40 7 c0 -5 -5 -10 -11 -10 -5 0 -7 5 -4 10 3 6 8 10 11 10 2 0 4
-4 4 -10z m50 0 c0 -5 -5 -10 -11 -10 -5 0 -7 5 -4 10 3 6 8 10 11 10 2 0 4
-4 4 -10z m50 0 c0 -5 -4 -10 -10 -10 -5 0 -10 5 -10 10 0 6 5 10 10 10 6 0
10 -4 10 -10z m50 0 c0 -5 -4 -10 -10 -10 -5 0 -10 5 -10 10 0 6 5 10 10 10 6
0 10 -4 10 -10z m50 0 c0 -5 -4 -10 -10 -10 -5 0 -10 5 -10 10 0 6 5 10 10 10
6 0 10 -4 10 -10z m44 -5 c-4 -8 -8 -15 -10 -15 -2 0 -4 7 -4 15 0 8 4 15 10
15 5 0 7 -7 4 -15z m743 -32 c-3 -10 -5 -2 -5 17 0 19 2 27 5 18 2 -10 2 -26
0 -35z m230 10 c-3 -10 -5 -4 -5 12 0 17 2 24 5 18 2 -7 2 -21 0 -30z m-8597
23 c0 -2 -8 -10 -17 -17 -16 -13 -17 -12 -4 4 13 16 21 21 21 13z m88 -32 c-3
-14 -5 -12 -10 9 -3 19 -2 25 4 19 6 -6 8 -18 6 -28z m632 26 c0 -5 -5 -9 -11
-7 -19 4 -21 -21 -2 -26 10 -2 4 -4 -13 -3 -24 1 -30 5 -26 18 2 10 8 16 12
13 5 -3 11 -1 15 5 8 13 25 13 25 0z m90 6 c0 -2 -8 -10 -17 -17 -16 -13 -17
-12 -4 4 13 16 21 21 21 13z m3108 -16 c7 -11 11 -20 9 -20 -2 0 -12 9 -22 20
-10 11 -14 20 -9 20 5 0 15 -9 22 -20z m684 5 c3 3 8 -4 11 -16 l6 -21 -23 21
c-12 12 -26 18 -31 14 -4 -5 -5 -2 -1 5 6 9 11 10 20 3 7 -6 15 -8 18 -6z
m345 -2 c5 3 9 -3 9 -14 0 -10 -1 -19 -1 -19 -1 0 -12 12 -26 27 -13 15 -16
22 -7 14 9 -7 21 -10 25 -8z m55 -10 c-3 -16 -7 -22 -10 -15 -4 13 4 42 11 42
2 0 2 -12 -1 -27z m558 2 c0 -8 -9 -19 -20 -25 -18 -10 -20 -8 -19 17 1 17 3
21 6 11 2 -10 9 -18 15 -18 6 0 8 9 5 20 -3 11 -1 18 4 14 5 -3 9 -12 9 -19z
m56 -1 c12 -17 11 -20 -5 -20 -13 0 -17 6 -13 20 4 15 1 18 -12 13 -11 -4 -15
-3 -11 4 9 14 26 7 41 -17z m46 -6 l-21 -21 6 21 c3 12 9 19 14 16 5 -3 9 0 9
7 0 7 3 9 7 5 4 -3 -3 -16 -15 -28z m865 0 c-3 -7 -5 -2 -5 12 0 14 2 19 5 13
2 -7 2 -19 0 -25z m367 24 c3 -5 -1 -9 -9 -9 -8 0 -12 4 -9 9 3 4 7 8 9 8 2 0
6 -4 9 -8z m958 -17 c2 3 5 -1 5 -8 0 -24 -25 -14 -30 12 -5 23 -4 24 7 8 7
-9 15 -15 18 -12z m266 -6 c-3 -8 -7 -3 -11 10 -4 17 -3 21 5 13 5 -5 8 -16 6
-23z m312 27 c0 -3 -4 -8 -10 -11 -5 -3 -10 -1 -10 4 0 6 5 11 10 11 6 0 10
-2 10 -4z m135 -5 c-3 -5 -1 -12 5 -16 5 -3 10 -11 10 -18 0 -6 -6 -2 -14 8
-13 18 -13 35 0 35 3 0 3 -4 -1 -9z m-8535 -17 c0 -8 -5 -12 -10 -9 -6 4 -8
11 -5 16 9 14 15 11 15 -7z m83 -4 c3 -11 1 -18 -4 -14 -5 3 -9 12 -9 20 0 20
7 17 13 -6z m845 3 c-6 -7 -14 -10 -19 -7 -15 9 -10 20 10 20 15 0 17 -3 9
-13z m2634 -8 c8 3 23 -4 34 -17 l19 -23 -22 18 c-12 11 -26 16 -31 13 -15 -9
-39 3 -47 22 -5 14 -3 14 13 -1 11 -10 26 -15 34 -12z m1308 8 c0 -7 7 -13 15
-13 8 0 15 -5 15 -10 0 -13 -31 2 -48 23 -9 11 -8 14 3 14 8 0 15 -6 15 -14z
m173 -3 c3 -11 1 -18 -4 -14 -5 3 -9 12 -9 20 0 20 7 17 13 -6z m44 -12 c-3
-7 -5 -2 -5 12 0 14 2 19 5 13 2 -7 2 -19 0 -25z m1317 18 c-5 -13 -34 -31
-34 -21 0 5 30 35 35 35 3 0 2 -6 -1 -14z m68 -18 c-12 -12 -32 -2 -31 15 0 9
2 9 6 0 7 -19 23 -16 24 5 0 11 2 13 6 4 3 -8 1 -18 -5 -24z m102 5 c5 -12 4
-13 -7 -5 -8 7 -16 10 -19 7 -2 -3 -5 1 -5 9 0 18 24 10 31 -11z m43 5 c-3 -8
-6 -5 -6 6 -1 11 2 17 5 13 3 -3 4 -12 1 -19z m506 2 c3 -11 1 -18 -4 -14 -5
3 -9 12 -9 20 0 20 7 17 13 -6z m1307 5 c-7 -9 -15 -13 -19 -10 -3 3 1 10 9
15 21 14 24 12 10 -5z m-3723 -17 c-3 -8 -6 -5 -6 6 -1 11 2 17 5 13 3 -3 4
-12 1 -19z m718 3 c-3 -6 -14 -10 -23 -10 -15 1 -15 2 1 6 9 2 17 9 17 15 0 6
3 9 6 5 3 -3 3 -10 -1 -16z m45 4 c9 5 11 4 6 -3 -11 -18 -36 -14 -36 6 0 13
2 14 9 3 5 -8 14 -10 21 -6z m504 -1 c3 -8 2 -12 -4 -9 -6 3 -10 10 -10 16 0
14 7 11 14 -7z m847 -7 c-10 -9 -11 -8 -5 6 3 10 9 15 12 12 3 -3 0 -11 -7
-18z m390 0 c-10 -9 -11 -8 -5 6 3 10 9 15 12 12 3 -3 0 -11 -7 -18z m804 4
c-3 -6 -11 -11 -16 -11 -5 0 -4 6 3 14 14 16 24 13 13 -3z m-7275 -1 c0 -5 -8
-10 -17 -10 -15 0 -16 2 -3 10 19 12 20 12 20 0z m3215 0 c3 -5 1 -10 -4 -10
-6 0 -11 5 -11 10 0 6 2 10 4 10 3 0 8 -4 11 -10z m200 -8 c-3 -3 -11 0 -18 7
-9 10 -8 11 6 5 10 -3 15 -9 12 -12z m452 -4 c-3 -8 -6 -5 -6 6 -1 11 2 17 5
13 3 -3 4 -12 1 -19z m138 4 c-3 -3 -11 0 -18 7 -9 10 -8 11 6 5 10 -3 15 -9
12 -12z m802 -14 c-3 -7 -5 -2 -5 12 0 14 2 19 5 13 2 -7 2 -19 0 -25z m-5570
16 c-3 -3 -12 -4 -19 -1 -8 3 -5 6 6 6 11 1 17 -2 13 -5z m4870 0 c-3 -3 -12
-4 -19 -1 -8 3 -5 6 6 6 11 1 17 -2 13 -5z m2410 0 c-3 -3 -12 -4 -19 -1 -8 3
-5 6 6 6 11 1 17 -2 13 -5z m1200 0 c-3 -3 -12 -4 -19 -1 -8 3 -5 6 6 6 11 1
17 -2 13 -5z m-8997 -418 c0 -11 -19 -15 -25 -6 -3 5 1 10 9 10 9 0 16 -2 16
-4z m-10 -266 c0 -5 -2 -10 -4 -10 -3 0 -8 5 -11 10 -3 6 -1 10 4 10 6 0 11
-4 11 -10z m297 -12 c-3 -8 -6 -5 -6 6 -1 11 2 17 5 13 3 -3 4 -12 1 -19z
m-297 -233 c0 -8 -4 -15 -10 -15 -5 0 -7 7 -4 15 4 8 8 15 10 15 2 0 4 -7 4
-15z m0 -245 c0 -5 -5 -10 -11 -10 -5 0 -7 5 -4 10 3 6 8 10 11 10 2 0 4 -4 4
-10z m357 -12 c-3 -8 -6 -5 -6 6 -1 11 2 17 5 13 3 -3 4 -12 1 -19z m103 7 c7
-8 9 -15 6 -15 -4 0 -14 7 -22 15 -9 8 -11 15 -6 15 5 0 15 -7 22 -15z"/>
<path d="M8593 3919 c-18 -12 -30 -25 -27 -30 3 -5 -3 -6 -12 -2 -13 5 -15 3
-9 -7 5 -9 4 -11 -3 -6 -23 14 -52 -13 -52 -47 0 -30 6 -36 65 -71 l65 -38 37
23 c21 13 41 27 44 32 3 5 8 8 10 6 2 -1 13 1 25 5 16 5 20 14 19 44 -1 22 -6
36 -13 35 -7 -2 -12 2 -12 7 0 6 -5 10 -11 10 -8 0 -8 -5 1 -15 7 -8 17 -12
24 -8 7 4 6 1 -1 -9 -7 -8 -10 -17 -7 -21 5 -5 -4 -4 -35 2 -2 1 2 7 8 15 8
10 9 16 1 21 -6 3 -8 10 -5 15 3 5 -9 16 -26 24 -37 19 -42 19 -34 7 3 -6 -4
-8 -15 -6 -14 3 -20 0 -17 -8 2 -7 17 -12 34 -11 29 0 30 -1 22 -29 -11 -38
-15 -42 -23 -22 -3 9 -2 13 4 10 6 -3 10 4 10 17 0 18 -2 20 -10 8 -5 -8 -10
-10 -10 -4 0 7 -13 10 -28 9 -18 -1 -29 3 -29 11 0 7 4 11 8 9 4 -3 10 2 13
11 3 8 10 12 16 9 5 -3 10 1 10 9 0 20 2 20 -37 -5z m28 -72 c-6 -8 -7 -18 -3
-22 4 -5 1 -5 -6 -1 -10 6 -10 11 -1 22 6 8 14 14 16 14 3 0 0 -6 -6 -13z"/>
<path d="M7343 3835 c-3 -9 3 -23 13 -31 17 -14 17 -15 2 -10 -10 3 -18 1 -18
-4 0 -13 37 -13 45 -1 3 5 -5 17 -17 25 -19 14 -20 16 -5 16 10 0 15 5 12 10
-9 15 -25 12 -32 -5z"/>
<path d="M7401 3836 c-10 -11 -7 -18 11 -31 17 -13 18 -16 5 -11 -12 4 -17 2
-15 -6 7 -19 28 -21 35 -2 4 11 -1 22 -13 32 -18 14 -18 14 -1 8 12 -4 17 -2
15 6 -6 18 -24 20 -37 4z"/>
<path d="M7457 3843 c-12 -11 -8 -61 6 -66 20 -7 47 12 47 33 0 24 -38 48 -53
33z m33 -33 c0 -11 -4 -20 -10 -20 -5 0 -10 9 -10 20 0 11 5 20 10 20 6 0 10
-9 10 -20z"/>
<path d="M7540 3835 c-6 -8 -9 -23 -5 -34 7 -22 31 -35 40 -21 3 5 12 7 20 3
8 -3 15 0 15 7 0 7 6 5 16 -4 18 -19 34 -12 34 14 0 25 -17 35 -35 20 -12 -10
-15 -9 -15 9 0 11 -5 21 -11 21 -5 0 -7 -4 -4 -10 3 -5 2 -10 -4 -10 -5 0 -13
5 -16 10 -9 14 -21 12 -35 -5z m40 -15 c13 -9 13 -11 0 -20 -22 -15 -30 -12
-30 10 0 22 8 25 30 10z m70 -20 c0 -5 -4 -10 -10 -10 -5 0 -10 5 -10 10 0 6
5 10 10 10 6 0 10 -4 10 -10z"/>
<path d="M7736 3829 c-15 -15 -22 -16 -28 -7 -5 9 -8 6 -8 -9 0 -13 -4 -23 -9
-23 -5 0 -12 10 -14 23 -3 18 -5 17 -6 -7 -1 -26 1 -28 29 -23 16 4 32 2 35
-3 12 -20 35 3 35 36 0 39 -7 41 -34 13z m14 -25 c0 -8 -5 -12 -10 -9 -6 4 -8
11 -5 16 9 14 15 11 15 -7z"/>
<path d="M7803 3835 c-3 -9 3 -23 13 -31 17 -14 17 -15 2 -10 -21 6 -24 -9 -4
-17 7 -3 18 -1 24 5 8 8 15 8 26 -1 9 -7 17 -8 20 -2 3 5 0 12 -6 14 -8 3 -6
6 5 6 9 1 17 -3 17 -9 0 -20 19 -10 23 13 l4 22 8 -23 c4 -13 12 -21 18 -19
14 4 29 47 17 47 -6 0 -10 -5 -10 -11 0 -8 -4 -8 -12 -1 -18 15 -87 12 -96 -3
-6 -11 -10 -11 -26 1 -19 13 -19 14 5 14 19 0 21 2 9 10 -21 14 -30 12 -37 -5z"/>
<path d="M8219 3843 c-5 -38 -5 -63 0 -64 3 0 15 -2 26 -4 19 -4 19 -3 2 10
-14 10 -15 14 -5 18 10 4 10 8 -2 16 -10 7 -11 11 -2 11 6 0 12 5 12 10 0 11
-29 14 -31 3z"/>
<path d="M8270 3835 c-14 -16 -5 -51 15 -58 7 -3 19 1 27 10 11 14 10 15 -10
9 -18 -6 -22 -4 -22 13 0 25 1 25 45 7 33 -14 51 -34 20 -22 -8 3 -15 1 -15
-3 0 -15 27 -20 39 -8 9 9 6 16 -11 30 -17 14 -18 17 -5 13 9 -3 17 -1 17 4 0
16 -21 22 -36 9 -11 -9 -18 -9 -26 -1 -16 16 -23 15 -38 -3z"/>
<path d="M7984 3815 c-7 -18 14 -47 28 -39 6 4 5 10 -3 15 -11 7 -10 9 4 9 9
0 17 -4 17 -10 0 -21 18 -9 22 15 5 26 -16 36 -25 13 -4 -10 -6 -10 -6 0 -1
17 -30 15 -37 -3z"/>
<path d="M8086 3813 c-4 -9 -1 -23 7 -30 12 -12 16 -12 26 1 16 19 8 46 -13
46 -7 0 -17 -8 -20 -17z m34 -13 c0 -5 -4 -10 -10 -10 -5 0 -10 5 -10 10 0 6
5 10 10 10 6 0 10 -4 10 -10z"/>
<path d="M8141 3803 c1 -17 3 -21 6 -10 2 9 8 17 13 17 5 0 11 -8 13 -17 3
-11 5 -7 6 10 1 21 -4 27 -19 27 -15 0 -20 -6 -19 -27z"/>
<path d="M1675 3796 c-102 -38 -136 -117 -90 -212 13 -27 24 -45 24 -40 1 5
12 -3 26 -18 22 -24 32 -27 81 -25 35 2 58 7 61 16 3 7 9 11 13 8 10 -6 50 47
50 65 0 6 5 8 13 4 7 -5 6 0 -3 11 -8 10 -10 16 -4 12 7 -4 13 2 16 16 6 30
-1 49 -15 41 -9 -5 -9 -4 0 6 12 14 -2 60 -19 60 -5 0 -7 -4 -4 -9 3 -5 -3
-20 -13 -33 -13 -16 -17 -29 -10 -39 5 -8 9 -11 10 -6 1 4 2 10 3 15 3 16 25
46 26 35 0 -6 -4 -15 -10 -18 -6 -4 -4 -16 6 -33 13 -21 13 -23 1 -9 -8 10
-18 14 -21 9 -3 -5 -2 -12 1 -16 13 -12 10 -56 -3 -67 -8 -6 -12 -15 -9 -19 3
-5 2 -11 -2 -13 -5 -3 -9 9 -9 26 -1 18 1 26 3 19 3 -6 9 -9 15 -6 5 3 2 14
-9 26 -9 11 -13 18 -8 16 6 -2 11 2 13 7 1 6 -4 10 -10 10 -17 0 -17 36 0 57
7 9 14 22 16 30 1 7 5 18 8 24 8 12 -54 50 -92 57 -14 2 -38 -1 -55 -7z m-49
-96 c-2 -28 1 -50 5 -50 5 0 9 5 9 11 0 5 5 7 10 4 6 -4 10 6 10 24 0 29 1 30
30 19 17 -5 42 -7 55 -4 14 4 28 6 31 5 4 0 11 5 15 13 5 8 9 9 9 2 0 -6 -7
-17 -15 -24 -9 -7 -14 -19 -11 -26 7 -19 -14 -90 -23 -75 -9 14 -36 16 -68 6
-19 -6 -23 -4 -23 14 0 15 -6 21 -22 21 -19 0 -20 -2 -8 -11 13 -9 13 -10 0
-6 -8 2 -22 -2 -31 -10 -14 -12 -16 -11 -15 9 1 13 -3 30 -8 38 -10 13 -9 13
6 2 10 -8 14 -20 11 -30 -6 -15 -5 -15 10 -3 17 13 16 15 -2 35 -15 16 -17 25
-10 36 8 13 9 12 7 -2 -2 -9 2 -16 7 -15 6 1 10 18 10 39 0 20 3 34 7 32 4 -3
6 -27 4 -54z m9 -98 c-3 -3 7 -19 22 -36 28 -31 28 -31 -8 2 -29 26 -38 30
-49 20 -12 -11 -12 -10 -2 3 6 9 19 16 27 16 8 0 13 -3 10 -5z m4 -46 c17 -18
19 -26 10 -31 -7 -5 -10 -4 -6 2 8 13 -27 46 -38 36 -4 -5 -5 -2 -1 5 9 16 9
16 35 -12z m136 -3 c-2 -10 -4 -19 -4 -21 -1 -2 -6 0 -11 3 -8 5 -7 11 1 21
15 18 18 18 14 -3z"/>
<path d="M1670 3671 c0 -10 7 -25 16 -32 19 -15 47 -21 38 -8 -3 5 1 9 9 9 14
0 27 20 27 40 0 12 -28 6 -42 -8 -9 -9 -9 -12 1 -12 7 0 9 -5 5 -11 -4 -8 -9
-7 -15 2 -7 12 -9 12 -9 0 0 -8 -3 -12 -6 -9 -3 4 -1 15 4 25 9 15 7 19 -9 20
-12 1 -19 -5 -19 -16z"/>
<path d="M2461 3778 c0 -7 4 -22 9 -33 8 -19 9 -19 9 3 1 12 1 25 2 29 0 4 -4
9 -10 11 -6 2 -11 -2 -10 -10z"/>
<path d="M2559 3780 c-3 -8 -18 -14 -35 -15 -19 0 -29 -5 -29 -15 0 -11 14
-15 58 -17 51 -1 57 1 57 19 0 15 -5 19 -19 15 -13 -3 -21 1 -23 12 -3 13 -5
13 -9 1z m-39 -30 c0 -5 -5 -10 -11 -10 -5 0 -7 5 -4 10 3 6 8 10 11 10 2 0 4
-4 4 -10z m40 0 c0 -5 -5 -10 -11 -10 -5 0 -7 5 -4 10 3 6 8 10 11 10 2 0 4
-4 4 -10z"/>
<path d="M8490 3760 c0 -10 13 -19 92 -63 l46 -27 51 34 c29 20 53 30 57 25 3
-6 4 -11 3 -13 -2 -1 -31 -16 -64 -33 l-60 -31 -27 20 c-16 11 -28 17 -28 13
0 -3 -10 3 -22 15 -22 21 -48 27 -48 11 0 -8 23 -21 36 -20 4 0 10 -4 13 -9 3
-5 25 -19 49 -31 l43 -22 32 23 c18 13 35 23 39 23 4 0 16 8 27 17 11 9 23 13
27 10 3 -4 2 2 -4 14 -8 15 -8 24 0 32 26 26 -4 21 -64 -12 l-64 -35 -60 34
c-63 37 -74 40 -74 25z"/>
<path d="M1783 3414 c-17 -14 -17 -15 5 -30 27 -20 29 -38 2 -31 -11 3 -18 2
-15 -3 3 -4 28 -8 55 -8 51 0 51 0 48 31 -2 20 -9 31 -20 33 -10 1 -18 -2 -18
-7 0 -5 8 -9 18 -10 13 0 11 -3 -6 -10 -17 -6 -30 -4 -50 9 l-26 17 29 5 c22
4 26 7 13 12 -9 4 -24 0 -35 -8z m87 -54 c0 -5 -4 -10 -9 -10 -6 0 -13 5 -16
10 -3 6 1 10 9 10 9 0 16 -4 16 -10z"/>
<path d="M2052 3388 c1 -39 5 -48 20 -48 22 0 40 31 28 51 -5 7 -14 14 -20 14
-6 0 -15 7 -21 15 -7 11 -9 2 -7 -32z m42 -6 c2 -4 0 -14 -5 -22 -8 -13 -10
-13 -19 0 -5 8 -10 18 -10 23 0 10 28 9 34 -1z"/>
<path d="M1230 3420 c-6 -15 -6 -61 1 -72 6 -9 9 -6 9 10 0 13 6 22 15 22 14
0 20 -13 15 -35 -1 -5 2 -7 6 -3 11 11 13 78 3 78 -5 0 -8 -5 -6 -12 4 -20
-31 -21 -36 -1 -3 10 -6 16 -7 13z"/>
<path d="M1392 3380 c0 -22 4 -37 9 -34 5 3 7 10 4 15 -10 15 7 10 29 -8 18
-17 18 -15 -2 14 -12 17 -22 36 -22 42 0 6 -4 11 -9 11 -6 0 -9 -18 -9 -40z"/>
<path d="M1425 3409 c-11 -17 1 -21 15 -4 8 9 8 15 2 15 -6 0 -14 -5 -17 -11z"/>
<path d="M1518 3415 c-2 -2 -2 -20 0 -40 3 -24 9 -35 21 -35 13 0 13 2 2 9 -9
6 -11 18 -7 34 5 23 -4 43 -16 32z"/>
<path d="M1555 3384 c4 -49 11 -52 13 -4 1 22 -2 40 -7 40 -4 0 -7 -16 -6 -36z"/>
<path d="M1466 3395 c-20 -20 -4 -58 22 -53 22 4 27 41 9 57 -12 9 -18 8 -31
-4z m32 -22 c-5 -25 -28 -28 -28 -4 0 12 6 21 16 21 9 0 14 -7 12 -17z"/>
<path d="M1584 3394 c3 -9 6 -22 6 -30 0 -9 4 -13 9 -9 5 3 12 1 16 -5 3 -5
15 -10 26 -10 14 0 19 7 19 29 0 30 -24 49 -36 29 -4 -6 -3 -8 4 -4 6 3 13 3
16 -2 2 -4 -4 -13 -15 -20 -17 -11 -21 -9 -29 13 -5 14 -12 25 -16 25 -3 0 -3
-7 0 -16z m66 -34 c0 -5 -4 -10 -10 -10 -5 0 -10 5 -10 10 0 6 5 10 10 10 6 0
10 -4 10 -10z"/>
<path d="M2005 3400 c-4 -6 2 -10 12 -11 15 0 14 -2 -5 -11 -27 -13 -24 -32 6
-36 18 -3 22 2 22 26 0 30 -24 50 -35 32z m25 -40 c0 -5 -7 -10 -16 -10 -8 0
-12 5 -9 10 3 6 10 10 16 10 5 0 9 -4 9 -10z"/>
<path d="M8650 3397 c-33 -16 -54 -37 -72 -75 -15 -29 -15 -30 2 -19 10 6 16
15 14 19 -3 4 -1 8 5 8 5 0 14 -7 19 -16 5 -9 13 -15 18 -14 5 1 10 -3 12 -9
2 -6 -3 -9 -10 -6 -8 3 -24 -8 -37 -26 -22 -29 -21 -44 1 -44 12 0 20 -27 19
-63 -1 -12 8 -31 19 -42 20 -20 29 -87 11 -75 -5 3 -12 1 -16 -5 -3 -5 -1 -10
4 -10 6 0 11 -7 11 -15 0 -12 5 -12 32 -1 33 14 42 34 26 57 -7 10 -8 9 -3 -6
5 -15 3 -17 -6 -8 -14 14 -2 36 14 26 7 -4 21 -8 32 -8 11 0 25 -4 31 -8 7 -4
15 0 18 9 3 8 10 12 16 9 5 -3 10 0 10 8 0 8 9 22 20 32 11 10 20 26 20 37 0
10 4 18 10 18 5 0 6 7 3 17 -4 11 -3 14 5 9 18 -11 15 -2 -8 24 -11 13 -20 19
-20 14 0 -5 -7 4 -15 20 -8 15 -12 32 -9 37 3 5 0 9 -6 9 -6 0 -8 4 -5 10 3 5
0 7 -8 4 -8 -3 -18 0 -23 7 -5 8 -3 10 6 4 9 -5 11 -4 6 4 -6 8 -11 9 -20 1
-10 -7 -20 -4 -40 11 -24 19 -26 19 -27 2 0 -10 -3 -13 -6 -5 -2 6 -9 10 -14
6 -5 -3 -9 -2 -8 3 3 20 -2 34 -11 28 -14 -9 -13 8 2 23 14 14 11 14 -22 -1z
m-20 -164 c0 -12 -3 -13 -13 -4 -8 6 -18 7 -23 3 -4 -4 -2 1 5 10 15 20 31 15
31 -9z"/>
<path d="M1302 3370 c0 -19 2 -27 5 -17 2 9 2 25 0 35 -3 9 -5 1 -5 -18z"/>
<path d="M1679 3398 c-5 -14 -4 -56 1 -53 11 7 19 55 9 55 -5 0 -9 -1 -10 -2z"/>
<path d="M1712 3370 c3 -34 12 -30 14 5 0 14 -3 25 -8 25 -4 0 -7 -13 -6 -30z"/>
<path d="M1894 3378 c3 -13 5 -26 5 -30 1 -5 10 -8 21 -8 16 0 20 6 19 33 -2
30 -2 30 -6 5 -5 -31 -22 -38 -24 -10 -1 9 -1 20 0 25 0 4 -3 7 -9 7 -5 0 -8
-10 -6 -22z"/>
<path d="M1958 3373 c5 -23 7 -25 10 -8 2 11 9 23 16 27 6 5 3 8 -10 8 -18 0
-20 -4 -16 -27z"/>
<path d="M8396 3364 c-14 -15 -26 -34 -26 -42 0 -8 3 -13 6 -9 4 3 21 -5 40
-19 32 -25 60 -25 51 0 -7 19 7 37 31 39 28 2 23 18 -11 39 -38 25 -60 22 -91
-8z"/>
<path d="M1326 3333 c-6 -14 -5 -15 5 -6 7 7 10 15 7 18 -3 3 -9 -2 -12 -12z"/>
<path d="M8370 3298 c-1 -20 25 -57 44 -62 34 -9 74 -7 82 5 4 8 0 9 -15 4
-36 -11 -80 4 -96 33 -8 15 -14 24 -15 20z"/>
<path d="M8920 3296 c0 -2 8 -10 18 -17 15 -13 16 -12 3 4 -13 16 -21 21 -21
13z"/>
<path d="M7340 3255 c0 -19 5 -35 10 -35 6 0 10 5 10 11 0 8 6 7 17 -2 15 -12
16 -12 10 3 -3 10 -2 20 4 24 14 9 -9 34 -32 34 -15 0 -19 -7 -19 -35z m40 11
c0 -3 -4 -8 -10 -11 -5 -3 -10 -1 -10 4 0 6 5 11 10 11 6 0 10 -2 10 -4z"/>
<path d="M7460 3255 c0 -19 4 -35 9 -35 5 0 11 16 13 35 3 24 0 35 -9 35 -8 0
-13 -13 -13 -35z"/>
<path d="M7689 3288 c-5 -16 -2 -71 3 -75 5 -2 8 1 8 8 0 6 8 18 18 25 16 13
16 13 -2 14 -20 0 -20 0 0 15 19 14 18 14 -3 15 -13 0 -23 -1 -24 -2z"/>
<path d="M7939 3280 c-4 -10 -19 -14 -47 -13 -39 2 -42 0 -41 -25 l0 -27 11
25 11 25 5 -23 c2 -14 9 -22 17 -19 7 3 18 0 24 -6 17 -17 33 6 29 44 -2 19
-6 27 -9 19z m1 -41 c0 -5 -4 -9 -10 -9 -5 0 -10 7 -10 16 0 8 5 12 10 9 6 -3
10 -10 10 -16z"/>
<path d="M7404 3256 c-8 -22 2 -46 21 -46 18 0 20 16 3 23 -8 3 -5 6 5 6 10 1
17 7 15 14 -7 18 -37 21 -44 3z"/>
<path d="M7494 3255 c-8 -21 19 -50 37 -39 9 5 8 9 -7 15 -18 7 -18 8 -1 8 23
1 17 25 -6 29 -10 2 -20 -4 -23 -13z"/>
<path d="M7551 3243 c0 -16 3 -22 6 -13 3 8 10 21 16 28 7 8 5 12 -7 12 -11 0
-16 -8 -15 -27z"/>
<path d="M7609 3256 c-1 -9 -2 -22 -3 -28 -1 -7 9 -14 22 -14 19 -1 23 3 20
25 -3 29 -37 43 -39 17z"/>
<path d="M7741 3238 c1 -22 3 -26 6 -13 8 31 23 42 23 17 0 -12 5 -22 11 -22
5 0 7 6 3 13 -4 6 2 4 14 -6 12 -11 26 -16 33 -11 9 5 7 10 -7 15 -17 7 -17 8
-1 8 24 1 22 31 -3 31 -11 0 -20 -5 -20 -12 0 -9 -3 -9 -12 0 -7 7 -20 12 -30
12 -14 0 -18 -7 -17 -32z"/>
<path d="M8952 3240 c0 -14 2 -19 5 -12 2 6 2 18 0 25 -3 6 -5 1 -5 -13z"/>
<path d="M8540 3228 c0 -5 -8 -7 -19 -3 -17 5 -18 2 -11 -34 6 -33 4 -38 -8
-33 -10 3 -7 -3 6 -16 12 -12 19 -30 17 -42 -3 -15 1 -20 16 -20 13 0 18 -4
13 -12 -4 -7 -3 -8 5 -4 8 6 9 12 2 20 -7 9 -7 16 1 24 8 8 9 12 1 12 -6 0
-10 8 -8 18 1 9 0 22 -4 27 -11 19 -9 34 5 46 18 15 18 26 -1 26 -8 0 -15 -4
-15 -9z"/>
<path d="M8566 3201 c-3 -5 2 -15 12 -22 15 -12 16 -12 5 2 -7 9 -10 19 -6 22
3 4 4 7 0 7 -3 0 -8 -4 -11 -9z"/>
<path d="M8596 3201 c-3 -4 1 -17 10 -27 14 -18 15 -18 5 2 -6 12 -7 24 -4 28
3 3 4 6 0 6 -3 0 -8 -4 -11 -9z"/>
<path d="M8952 3184 c-1 -14 -7 -34 -13 -45 -6 -11 -8 -27 -5 -35 3 -8 -1 -17
-9 -20 -27 -11 -5 -22 41 -22 47 0 84 23 84 52 0 25 -40 66 -63 63 -12 -1 -22
3 -22 10 0 23 -11 21 -13 -3z"/>
<path d="M3160 3172 c0 -7 -4 -10 -10 -7 -5 3 -10 2 -10 -3 0 -5 -22 -7 -50
-5 -47 3 -50 2 -49 -19 0 -22 1 -22 8 -3 l8 20 5 -20 c5 -17 6 -18 7 -2 0 10
6 15 11 12 6 -4 8 -10 6 -14 -3 -3 4 -7 14 -7 10 0 16 6 13 13 -7 18 2 16 21
-3 15 -14 16 -14 17 3 0 16 1 16 9 -2 7 -17 9 -17 9 -2 1 19 21 24 21 4 0 -8
16 -13 45 -14 43 -1 45 0 45 29 0 26 -2 28 -15 15 -18 -19 -83 -15 -96 4 -7
11 -9 11 -9 1z m70 -32 c0 -5 -4 -10 -10 -10 -5 0 -10 5 -10 10 0 6 5 10 10
10 6 0 10 -4 10 -10z m40 0 c0 -5 -4 -10 -10 -10 -5 0 -10 5 -10 10 0 6 5 10
10 10 6 0 10 -4 10 -10z"/>
<path d="M3610 3151 c0 -27 3 -31 25 -29 17 2 25 8 25 21 0 10 -4 16 -9 12 -5
-3 -17 2 -25 11 -15 14 -16 13 -16 -15z m30 -11 c0 -5 -4 -10 -10 -10 -5 0
-10 5 -10 10 0 6 5 10 10 10 6 0 10 -4 10 -10z"/>
<path d="M3671 3148 c0 -27 2 -29 8 -13 l8 20 5 -20 c4 -14 6 -10 7 13 1 22
-4 32 -14 32 -10 0 -15 -10 -14 -32z"/>
<path d="M2453 3141 c-1 -21 0 -22 6 -7 7 17 8 17 24 2 16 -16 17 -16 17 6 0
17 -6 23 -23 24 -18 1 -23 -4 -24 -25z"/>
<path d="M2970 3160 c-14 -3 -46 -5 -72 -3 -45 3 -48 2 -47 -19 0 -22 1 -22 8
-3 l8 20 5 -20 c5 -17 6 -18 7 -2 0 10 6 15 11 12 6 -4 8 -11 4 -16 -3 -5 0
-8 8 -7 7 2 16 9 19 17 4 11 8 10 22 -3 16 -16 17 -16 18 1 0 14 2 15 7 3 10
-22 29 -22 35 0 6 24 -1 29 -33 20z"/>
<path d="M3437 3152 c8 -32 19 -35 31 -7 7 15 8 25 2 25 -6 0 -10 -8 -10 -17
0 -15 -2 -14 -15 3 -13 18 -14 18 -8 -4z"/>
<path d="M2527 3140 c3 -11 7 -20 9 -20 2 0 4 9 4 20 0 11 -4 20 -9 20 -5 0
-7 -9 -4 -20z"/>
<path d="M2551 3138 c1 -18 2 -19 6 -5 2 9 9 15 14 11 5 -3 7 -9 5 -13 -3 -4
1 -8 9 -8 19 0 19 5 1 23 -21 21 -36 17 -35 -8z"/>
<path d="M2607 3139 c5 -18 33 -16 33 3 0 5 5 6 10 3 8 -5 7 -11 -1 -21 -7 -9
-8 -14 -1 -14 6 0 17 9 25 20 8 11 17 17 20 13 4 -3 7 -2 7 3 0 6 -22 10 -49
11 -42 0 -48 -2 -44 -18z"/>
<path d="M2730 3135 c0 -22 3 -24 19 -16 10 6 21 7 25 4 3 -3 6 -2 6 3 0 14
-22 34 -37 34 -7 0 -13 -11 -13 -25z m30 5 c0 -5 -4 -10 -10 -10 -5 0 -10 5
-10 10 0 6 5 10 10 10 6 0 10 -4 10 -10z"/>
<path d="M2780 3153 c0 -5 5 -15 10 -23 8 -12 10 -11 10 8 0 12 -4 22 -10 22
-5 0 -10 -3 -10 -7z"/>
<path d="M2811 3155 c0 -5 4 -19 8 -29 7 -19 8 -19 13 2 4 12 2 20 -2 17 -5
-3 -11 1 -13 7 -3 7 -5 9 -6 3z"/>
<path d="M3498 3153 c-10 -2 -18 -11 -18 -19 0 -18 5 -18 24 1 13 13 16 13 30
-1 10 -10 16 -11 16 -3 0 9 3 9 14 0 11 -9 15 -7 18 7 6 21 -21 26 -34 7 -5
-6 -8 -5 -8 3 0 12 -10 13 -42 5z"/>
<path d="M1260 2670 c0 -34 5 -37 28 -14 15 15 16 15 22 -2 6 -17 7 -17 17 0
8 15 11 16 16 3 6 -17 127 -21 127 -3 0 6 5 5 12 -2 12 -12 90 -17 101 -6 10
10 -13 45 -24 38 -6 -3 -8 -12 -5 -20 3 -8 1 -14 -4 -14 -6 0 -10 9 -10 19 0
16 -7 19 -40 18 -32 -2 -40 -6 -41 -22 0 -14 -2 -16 -6 -5 -11 27 -33 43 -46
32 -16 -13 -94 -14 -102 -2 -3 6 -15 10 -26 10 -14 0 -19 -7 -19 -30z m260
-10 c0 -5 -4 -10 -10 -10 -5 0 -10 5 -10 10 0 6 5 10 10 10 6 0 10 -4 10 -10z"/>
<path d="M1614 2685 c-9 -23 3 -45 26 -45 20 0 25 15 14 44 -8 20 -33 21 -40
1z"/>
<path d="M1690 2687 c0 -7 6 -19 13 -26 10 -11 10 -13 0 -7 -7 4 -13 3 -13 -2
0 -5 23 -9 51 -10 37 -1 52 3 56 15 5 14 8 13 20 -3 12 -16 15 -17 23 -4 5 8
10 10 10 4 0 -12 136 -18 144 -6 17 28 -80 53 -111 29 -9 -7 -13 -5 -13 7 0 9
-4 16 -10 16 -5 0 -10 -4 -10 -10 0 -5 -21 -8 -47 -6 -27 1 -54 -2 -61 -7 -9
-7 -17 -6 -25 3 -9 10 -9 11 1 6 6 -4 12 -2 12 3 0 6 -9 11 -20 11 -11 0 -20
-6 -20 -13z m90 -27 c0 -5 -8 -10 -17 -10 -15 0 -16 2 -3 10 19 12 20 12 20 0z
m130 0 c0 -5 -4 -10 -10 -10 -5 0 -10 5 -10 10 0 6 5 10 10 10 6 0 10 -4 10
-10z m53 -7 c-7 -2 -19 -2 -25 0 -7 3 -2 5 12 5 14 0 19 -2 13 -5z"/>
<path d="M7372 2658 c-7 -7 -12 -18 -12 -25 0 -16 37 -36 44 -24 3 5 16 7 29
4 18 -4 19 -3 7 6 -13 9 -13 11 3 11 9 0 17 -4 17 -10 0 -17 18 -11 23 8 4 16
5 16 6 0 2 -28 21 -21 21 7 0 23 -3 24 -36 20 -49 -6 -78 -16 -86 -29 -5 -7
-8 -4 -8 7 0 9 7 17 16 17 8 0 12 5 9 10 -8 13 -18 13 -33 -2z"/>
<path d="M7520 2641 c0 -24 4 -31 20 -31 12 0 20 7 21 18 0 14 2 14 9 -3 5
-11 9 -15 10 -10 0 6 7 2 15 -9 17 -22 35 -13 35 19 0 21 -4 24 -40 23 -22 0
-47 5 -55 12 -13 11 -15 8 -15 -19z m100 -11 c0 -5 -5 -10 -11 -10 -5 0 -7 5
-4 10 3 6 8 10 11 10 2 0 4 -4 4 -10z"/>
<path d="M7660 2655 c-10 -12 -9 -16 5 -21 12 -5 13 -9 4 -14 -6 -5 12 -8 42
-8 31 -1 57 4 61 11 6 9 8 9 8 0 0 -19 18 -16 23 5 4 16 5 16 6 0 1 -24 17
-23 24 2 7 25 -5 32 -35 22 -12 -5 -29 -7 -36 -5 -7 3 -20 -3 -28 -13 -14 -18
-15 -18 -10 -1 4 13 -2 20 -20 27 -32 12 -29 13 -44 -5z m35 -5 c3 -5 1 -10
-4 -10 -6 0 -11 5 -11 10 0 6 2 10 4 10 3 0 8 -4 11 -10z"/>
<path d="M7908 2659 c-2 -7 -17 -12 -33 -13 -20 -1 -31 -7 -33 -18 -2 -10 1
-18 7 -18 6 0 11 5 11 10 0 6 5 10 11 10 5 0 7 -4 4 -10 -4 -6 7 -10 24 -10
28 0 31 3 31 30 0 29 -15 41 -22 19z"/>
<path d="M5640 2170 l0 -290 715 0 715 0 0 290 0 290 -715 0 -715 0 0 -290z
m1380 0 l0 -240 -665 0 -665 0 0 240 0 240 665 0 665 0 0 -240z"/>
<path d="M5981 2344 c-1 -27 2 -30 27 -30 21 0 28 5 29 19 2 19 2 19 -12 1
-14 -18 -14 -18 -15 -1 0 10 -4 16 -9 12 -5 -3 -12 3 -14 12 -3 10 -5 4 -6
-13z"/>
<path d="M5711 2333 c0 -25 1 -26 9 -8 12 27 12 35 0 35 -5 0 -10 -12 -9 -27z"/>
<path d="M5740 2353 c-7 -30 -4 -36 17 -38 12 -1 21 3 20 9 -1 6 4 10 11 8 8
-1 11 2 7 8 -4 7 -12 7 -25 0 -14 -8 -20 -6 -23 8 -3 9 -6 11 -7 5z"/>
<path d="M5810 2335 c0 -14 4 -25 9 -25 4 0 6 11 3 25 -2 14 -6 25 -8 25 -2 0
-4 -11 -4 -25z"/>
<path d="M5837 2332 c7 -28 53 -27 53 2 0 16 -3 18 -9 7 -7 -11 -9 -11 -14 0
-5 12 -6 12 -6 0 -1 -10 -4 -11 -15 -2 -12 10 -13 9 -9 -7z"/>
<path d="M5924 2328 c0 -12 4 -14 12 -7 8 7 13 6 16 -3 3 -7 7 -3 10 9 4 17 1
20 -16 19 -13 0 -22 -8 -22 -18z"/>
<path d="M6052 2330 c0 -14 2 -19 5 -12 2 6 2 18 0 25 -3 6 -5 1 -5 -13z"/>
<path d="M6070 2331 c0 -25 6 -27 13 -6 4 8 2 17 -3 20 -6 4 -10 -3 -10 -14z"/>
<path d="M6097 2336 c-5 -14 10 -36 25 -36 4 0 7 12 7 28 -2 23 -2 24 -6 4 -2
-12 -8 -20 -13 -17 -5 3 -7 12 -3 20 3 8 3 15 0 15 -3 0 -7 -6 -10 -14z"/>
<path d="M5768 2129 c-10 -10 -18 -23 -18 -29 0 -12 38 -21 65 -16 11 3 23 5
28 5 16 2 5 30 -18 45 -30 20 -35 19 -57 -5z"/>
<path d="M5920 2138 c0 -4 5 -19 11 -35 l11 -28 15 28 c8 16 12 31 9 34 -3 3
-8 -2 -12 -11 -6 -15 -7 -15 -20 1 -7 10 -14 15 -14 11z"/>
<path d="M6110 2129 c0 -5 -4 -8 -9 -4 -5 3 -12 1 -16 -5 -4 -6 -11 -8 -16 -5
-5 4 -9 -2 -10 -12 0 -14 -2 -15 -6 -3 -13 34 -46 40 -41 8 3 -21 9 -23 61
-24 56 -1 57 -1 57 27 0 16 -4 29 -10 29 -5 0 -10 -5 -10 -11z m-70 -23 c0 -3
-4 -8 -10 -11 -5 -3 -10 -1 -10 4 0 6 5 11 10 11 6 0 10 -2 10 -4z"/>
<path d="M6157 2133 c-3 -7 -2 -21 2 -38 0 -3 10 -1 20 5 14 7 21 6 24 -3 4
-9 6 -9 6 1 2 26 -42 54 -52 35z"/>
<path d="M6404 2125 c-13 -33 1 -40 89 -41 l87 -1 0 28 c0 27 -2 28 -25 17
-14 -6 -25 -18 -25 -27 -1 -14 -3 -13 -14 2 -8 10 -23 19 -35 20 -12 1 -21 5
-21 9 0 14 -51 8 -56 -7z m42 -6 c10 -17 -13 -36 -27 -22 -12 12 -4 33 11 33
5 0 12 -5 16 -11z m44 -13 c0 -3 -4 -8 -10 -11 -5 -3 -10 -1 -10 4 0 6 5 11
10 11 6 0 10 -2 10 -4z m80 0 c0 -3 -4 -8 -10 -11 -5 -3 -10 -1 -10 4 0 6 5
11 10 11 6 0 10 -2 10 -4z"/>
<path d="M6280 2113 c0 -7 0 -16 0 -20 0 -5 11 -8 25 -9 20 -1 25 4 25 21 0
18 -5 23 -25 21 -14 0 -25 -7 -25 -13z"/>
<path d="M6344 2117 c-7 -19 2 -37 19 -37 8 0 7 3 -2 9 -11 7 -10 10 4 12 17
4 17 5 2 18 -14 11 -18 11 -23 -2z"/>
<path d="M5970 2100 c0 -12 5 -17 13 -14 8 3 14 11 14 19 0 8 -6 15 -14 15 -7
0 -13 -9 -13 -20z"/>
<path d="M6220 2097 c0 -18 2 -19 10 -7 8 12 12 13 19 2 6 -11 10 -10 15 3 3
9 6 18 6 19 0 1 -11 3 -25 4 -20 1 -25 -3 -25 -21z"/>
<path d="M7398 2373 c0 -5 -2 -20 -2 -35 -2 -24 1 -26 32 -24 36 2 56 24 46
50 -9 22 -35 20 -41 -4 -3 -11 -9 -17 -14 -15 -4 3 -6 12 -2 20 3 8 0 15 -6
15 -6 0 -12 -3 -13 -7z m62 -30 c0 -20 -3 -24 -11 -16 -7 7 -9 19 -6 27 10 24
17 19 17 -11z"/>
<path d="M7505 2369 c-3 -4 2 -15 12 -24 14 -14 14 -18 2 -26 -9 -5 -10 -9 -2
-9 6 0 21 14 33 31 12 16 25 27 28 24 4 -3 0 -10 -8 -15 -12 -8 -12 -10 -1
-10 11 0 11 -3 1 -15 -8 -10 -9 -15 -2 -15 16 0 33 36 26 53 -5 15 -81 21 -89
6z m30 -9 c3 -5 1 -10 -4 -10 -6 0 -11 5 -11 10 0 6 2 10 4 10 3 0 8 -4 11
-10z"/>
<path d="M7609 2353 c-5 -14 -8 -34 -7 -42 2 -9 9 3 15 27 12 47 8 56 -8 15z"/>
<path d="M7802 2349 c3 -39 38 -56 38 -20 0 25 17 28 24 4 3 -11 4 -7 3 7 -1
14 -6 23 -11 22 -5 -2 -13 2 -17 10 -6 9 -9 2 -9 -20 0 -20 -4 -31 -10 -27 -6
4 -8 15 -5 25 3 10 1 21 -5 25 -8 5 -10 -4 -8 -26z"/>
<path d="M7907 2373 c-2 -4 -4 -19 -2 -33 1 -21 7 -25 36 -26 19 -1 42 0 52 3
21 5 23 40 2 40 -8 0 -15 -9 -15 -21 0 -17 -2 -18 -9 -6 -6 8 -7 18 -4 24 4 5
-1 7 -10 3 -10 -4 -16 -2 -14 5 2 14 -29 23 -36 11z m33 -37 c0 -3 -4 -8 -10
-11 -5 -3 -10 -1 -10 4 0 6 5 11 10 11 6 0 10 -2 10 -4z"/>
<path d="M8023 2353 c1 -17 4 -30 8 -27 4 2 10 0 14 -6 15 -24 35 -9 35 25 0
35 0 35 -24 20 -23 -15 -25 -15 -29 2 -3 10 -5 4 -4 -14z m47 -19 c0 -8 -4
-12 -10 -9 -5 3 -10 10 -10 16 0 5 5 9 10 9 6 0 10 -7 10 -16z"/>
<path d="M8124 2346 l10 -35 13 31 c17 39 16 43 -2 28 -10 -9 -15 -9 -15 -1 0
6 -4 11 -9 11 -4 0 -3 -15 3 -34z"/>
<path d="M8321 2348 c5 -18 9 -35 9 -37 0 -3 5 0 10 5 7 7 6 19 -2 37 -18 37
-29 34 -17 -5z"/>
<path d="M8346 2371 c-5 -7 -5 -16 1 -20 5 -3 13 -15 18 -26 7 -18 9 -16 17
14 5 18 7 36 4 39 -3 3 -6 -2 -6 -11 0 -22 -18 -22 -22 1 -3 13 -5 14 -12 3z"/>
<path d="M8440 2371 c0 -7 -6 -11 -14 -8 -22 9 -41 -19 -26 -38 7 -8 18 -15
24 -14 7 0 6 2 -1 6 -7 2 -13 14 -13 25 0 19 2 19 25 -7 23 -28 25 -28 44 -11
12 11 21 14 26 7 3 -6 1 -11 -6 -11 -7 0 -10 -2 -8 -5 10 -9 48 8 52 24 4 12
5 10 6 -5 1 -16 8 -21 34 -21 17 0 26 2 20 5 -7 2 -13 10 -13 18 0 8 6 11 15
8 8 -4 15 -2 15 4 0 5 -6 12 -14 15 -15 6 -28 -5 -40 -33 -3 -8 -4 -3 -2 13 4
35 -9 44 -26 17 -16 -24 -28 -26 -28 -3 0 13 -3 14 -12 5 -8 -8 -15 -9 -25 -1
-7 7 -13 8 -13 3 0 -5 -5 -2 -10 6 -7 12 -10 12 -10 1z m30 -37 c0 -8 -4 -12
-10 -9 -5 3 -10 10 -10 16 0 5 5 9 10 9 6 0 10 -7 10 -16z"/>
<path d="M8651 2348 c-1 -29 2 -36 14 -32 8 4 15 12 15 20 0 20 18 17 23 -3 4
-14 5 -13 6 3 1 31 -29 40 -37 12 -6 -21 -7 -21 -13 7 -7 29 -7 29 -8 -7z"/>
<path d="M8747 2372 c18 -11 21 -48 3 -44 -11 3 -12 1 -3 -8 17 -18 33 -3 33
31 0 23 -4 29 -22 29 -14 0 -18 -3 -11 -8z"/>
<path d="M8818 2351 c-3 -17 -1 -31 3 -31 11 0 19 44 10 53 -5 5 -11 -5 -13
-22z"/>
<path d="M8850 2361 c-13 -25 -13 -41 0 -21 8 13 10 12 10 -2 0 -10 7 -18 15
-18 19 0 19 27 0 46 -12 13 -15 12 -25 -5z"/>
<path d="M1350 2345 c0 -24 4 -31 20 -31 11 0 20 5 20 11 0 5 5 3 10 -5 8 -13
10 -13 10 2 0 9 -4 20 -10 23 -5 3 -10 1 -10 -4 0 -6 -7 -11 -16 -11 -8 0 -13
4 -10 8 2 4 1 14 -5 22 -6 11 -9 7 -9 -15z"/>
<path d="M7642 2356 c-10 -17 -11 -36 -1 -36 5 0 9 8 10 18 1 11 4 9 9 -8 8
-24 8 -24 9 -2 1 26 21 30 21 5 0 -12 8 -18 25 -19 14 -1 25 2 25 7 0 5 -3 8
-7 7 -5 -2 -9 1 -11 7 -2 5 1 11 6 13 6 2 13 -6 17 -18 3 -11 10 -18 15 -15 5
3 7 12 3 20 -3 8 0 15 6 15 6 0 11 -8 12 -17 0 -11 2 -13 6 -5 3 7 2 19 -1 28
-4 11 -10 12 -25 4 -14 -7 -22 -7 -26 0 -5 8 -11 8 -19 1 -7 -6 -16 -8 -20 -4
-11 11 -46 10 -54 -1z"/>
<path d="M8171 2356 c-22 -26 -3 -44 42 -41 58 3 57 3 57 19 0 8 6 17 13 19 7
3 5 6 -5 6 -11 1 -18 -6 -19 -16 0 -15 -2 -15 -9 2 -7 17 -9 17 -9 3 -1 -23
-21 -24 -21 -1 0 9 -3 13 -7 10 -3 -4 -12 -2 -18 3 -9 7 -16 6 -24 -4z m29
-14 c0 -13 -12 -22 -22 -16 -10 6 -1 24 13 24 5 0 9 -4 9 -8z"/>
<path d="M8913 2363 c-7 -3 -12 -14 -12 -26 1 -17 2 -18 6 -4 2 9 8 17 13 17
5 0 11 -8 13 -17 4 -14 5 -13 6 4 1 24 -8 33 -26 26z"/>
<path d="M1312 2335 c0 -16 2 -22 5 -12 2 9 2 23 0 30 -3 6 -5 -1 -5 -18z"/>
<path d="M1457 2353 c-3 -5 -1 -17 4 -28 7 -17 8 -17 8 8 1 27 -4 34 -12 20z"/>
<path d="M1491 2339 c-1 -30 25 -36 32 -7 4 15 3 17 -8 8 -10 -8 -14 -7 -18 7
-3 12 -5 10 -6 -8z"/>
<path d="M1570 2341 c0 -11 3 -22 8 -24 4 -3 7 6 7 19 0 13 -3 24 -7 24 -5 0
-8 -9 -8 -19z"/>
<path d="M1832 2335 c0 -16 2 -22 5 -12 2 9 2 23 0 30 -3 6 -5 -1 -5 -18z"/>
<path d="M1862 2335 c0 -16 2 -22 5 -12 2 9 2 23 0 30 -3 6 -5 -1 -5 -18z"/>
<path d="M2780 2351 c0 -5 -3 -18 -7 -28 -6 -16 -5 -16 10 -4 12 9 17 10 17 2
0 -7 5 -9 10 -6 6 3 10 1 10 -4 0 -6 4 -11 9 -11 5 0 9 11 9 25 0 14 -5 25
-10 25 -5 0 -6 -4 -3 -10 3 -5 1 -10 -4 -10 -6 0 -11 7 -11 15 0 8 -7 15 -15
15 -8 0 -15 -4 -15 -9z"/>
<path d="M3032 2335 c0 -16 2 -22 5 -12 2 9 2 23 0 30 -3 6 -5 -1 -5 -18z"/>
<path d="M3060 2335 c1 -26 2 -28 11 -12 8 14 8 22 0 30 -8 8 -11 3 -11 -18z"/>
<path d="M3087 2340 c-3 -11 -1 -23 4 -26 5 -3 9 6 9 20 0 31 -6 34 -13 6z"/>
<path d="M3110 2334 c0 -14 4 -23 9 -20 5 3 7 15 4 26 -7 28 -13 25 -13 -6z"/>
<path d="M4240 2351 c0 -20 28 -43 35 -30 4 5 5 11 4 12 -2 2 -12 9 -21 16
-13 10 -18 10 -18 2z"/>
<path d="M4287 2353 c-3 -5 -1 -17 4 -28 7 -17 8 -17 8 8 1 27 -4 34 -12 20z"/>
<path d="M4550 2333 c0 -20 3 -24 9 -14 6 9 11 10 15 2 10 -16 26 -13 26 5 0
9 -5 12 -12 8 -8 -5 -9 -2 -5 9 5 12 1 17 -13 17 -15 0 -20 -7 -20 -27z"/>
<path d="M4637 2353 c-9 -9 -9 -43 1 -43 4 0 7 11 7 25 0 14 0 25 -1 25 0 0
-4 -3 -7 -7z"/>
<path d="M4682 2335 c0 -16 2 -22 5 -12 2 9 2 23 0 30 -3 6 -5 -1 -5 -18z"/>
<path d="M4708 2334 c4 -22 6 -24 14 -10 9 16 3 36 -11 36 -5 0 -6 -12 -3 -26z"/>
<path d="M4741 2333 c0 -25 1 -26 9 -8 12 27 12 35 0 35 -5 0 -10 -12 -9 -27z"/>
<path d="M4766 2343 c-4 -9 -2 -21 4 -27 7 -7 10 -2 10 17 0 31 -5 34 -14 10z"/>
<path d="M1420 2344 c0 -17 17 -36 24 -26 3 5 -1 15 -9 22 -8 7 -15 9 -15 4z"/>
<path d="M1613 2332 c-9 -15 -8 -19 3 -19 8 0 14 9 14 19 0 10 -1 18 -3 18 -1
0 -7 -8 -14 -18z"/>
<path d="M1643 2330 c1 -22 24 -21 30 1 3 12 -1 17 -13 16 -10 -1 -18 -8 -17
-17z"/>
<path d="M1692 2330 c0 -14 2 -19 5 -12 2 6 2 18 0 25 -3 6 -5 1 -5 -13z"/>
<path d="M1712 2330 c0 -14 2 -19 5 -12 2 6 2 18 0 25 -3 6 -5 1 -5 -13z"/>
<path d="M1739 2343 c0 -5 -2 -16 -4 -25 -2 -10 1 -18 6 -18 5 0 9 11 9 25 0
22 -9 37 -11 18z"/>
<path d="M1761 2326 c0 -12 3 -15 6 -8 4 9 8 10 18 2 11 -9 12 -7 8 8 -6 26
-33 24 -32 -2z"/>
<path d="M1812 2330 c0 -14 2 -19 5 -12 2 6 2 18 0 25 -3 6 -5 1 -5 -13z"/>
<path d="M1881 2327 c1 -17 2 -18 6 -4 2 9 9 17 14 17 5 0 9 -8 9 -17 0 -15 2
-16 10 -3 9 13 10 13 11 0 0 -10 3 -8 9 5 8 19 9 19 9 -3 1 -13 5 -21 10 -18
5 4 8 14 7 23 -2 12 -14 17 -44 19 -37 2 -42 0 -41 -19z"/>
<path d="M2850 2327 c0 -17 2 -19 9 -8 8 12 12 12 25 2 10 -8 16 -9 16 -3 0 6
-6 14 -12 19 -25 15 -38 11 -38 -10z"/>
<path d="M2932 2330 c0 -14 2 -19 5 -12 2 6 2 18 0 25 -3 6 -5 1 -5 -13z"/>
<path d="M2950 2328 c0 -12 1 -19 3 -17 1 2 9 12 16 22 12 14 11 17 -3 17 -10
0 -16 -8 -16 -22z"/>
<path d="M2993 2334 c-8 -8 -9 -15 -3 -19 6 -3 10 0 10 7 0 9 3 9 10 -2 8 -13
10 -13 10 2 0 23 -12 29 -27 12z"/>
<path d="M4321 2336 c-8 -10 -9 -16 -1 -21 5 -3 10 2 11 12 0 14 2 15 7 3 10
-22 26 -22 40 1 10 16 9 19 -4 19 -8 0 -12 -4 -9 -10 8 -13 -8 -13 -21 0 -8 8
-15 6 -23 -4z"/>
<path d="M4402 2333 c-8 -8 -8 -14 -2 -18 6 -3 10 0 10 7 0 9 3 9 10 -2 9 -13
10 -13 10 0 0 13 2 13 9 1 7 -11 10 -10 14 5 4 16 5 15 6 -4 0 -13 5 -20 11
-17 6 4 7 12 3 18 -4 7 0 6 10 -2 15 -12 17 -11 17 3 0 11 5 15 13 10 6 -4 9
-4 5 1 -12 13 -104 12 -116 -2z"/>
<path d="M7402 2225 c0 -16 2 -22 5 -12 2 9 2 23 0 30 -3 6 -5 -1 -5 -18z"/>
<path d="M7431 2234 c0 -11 3 -14 6 -6 3 7 2 16 -1 19 -3 4 -6 -2 -5 -13z"/>
<path d="M7822 2226 c1 -14 5 -23 9 -20 7 4 0 44 -7 44 -2 0 -3 -11 -2 -24z"/>
<path d="M8505 2241 c-3 -5 -2 -12 3 -15 5 -3 9 1 9 9 0 17 -3 19 -12 6z"/>
<path d="M8282 2220 c0 -14 2 -19 5 -12 2 6 2 18 0 25 -3 6 -5 1 -5 -13z"/>
<path d="M8785 2230 c-3 -6 1 -7 9 -4 18 7 21 14 7 14 -6 0 -13 -4 -16 -10z"/>
<path d="M7700 2221 c0 -6 4 -13 10 -16 6 -3 7 1 4 9 -7 18 -14 21 -14 7z"/>
<path d="M8150 2221 c0 -6 4 -13 10 -16 6 -3 7 1 4 9 -7 18 -14 21 -14 7z"/>
<path d="M8207 2213 c3 -7 6 -13 8 -13 2 0 5 6 8 13 3 8 -1 14 -8 14 -7 0 -11
-6 -8 -14z"/>
<path d="M8571 2214 c0 -11 3 -14 6 -6 3 7 2 16 -1 19 -3 4 -6 -2 -5 -13z"/>
<path d="M8636 2217 c3 -10 9 -15 12 -12 3 3 0 11 -7 18 -10 9 -11 8 -5 -6z"/>
<path d="M8906 2217 c3 -10 9 -15 12 -12 3 3 0 11 -7 18 -10 9 -11 8 -5 -6z"/>
<path d="M9001 2214 c0 -11 3 -14 6 -6 3 7 2 16 -1 19 -3 4 -6 -2 -5 -13z"/>
<path d="M8015 2210 c-3 -6 1 -7 9 -4 18 7 21 14 7 14 -6 0 -13 -4 -16 -10z"/>
<path d="M8396 2212 c-3 -5 1 -9 9 -9 8 0 12 4 9 9 -3 4 -7 8 -9 8 -2 0 -6 -4
-9 -8z"/>
<path d="M1365 2151 c-3 -2 -5 -19 -5 -38 0 -32 1 -33 40 -33 39 0 40 1 40 34
0 31 -3 34 -35 38 -20 2 -38 2 -40 -1z"/>
<path d="M2834 2148 c-9 -14 17 -68 31 -68 16 0 48 47 41 59 -8 12 -66 19 -72
9z"/>
<path d="M3337 2143 c-4 -3 -7 -20 -6 -37 0 -25 2 -27 8 -12 7 17 8 17 14 3 6
-15 47 -20 47 -6 0 4 2 14 5 21 4 11 -3 14 -29 12 -27 -2 -34 0 -29 11 5 16 1
19 -10 8z m43 -37 c0 -3 -4 -8 -10 -11 -5 -3 -10 -1 -10 4 0 6 5 11 10 11 6 0
10 -2 10 -4z"/>
<path d="M4306 2130 c-22 -22 -16 -36 19 -43 35 -6 59 17 45 44 -13 24 -39 24
-64 -1z"/>
<path d="M1524 2125 c-12 -30 3 -42 50 -42 27 0 46 4 46 11 0 7 3 7 8 1 4 -5
25 -11 47 -11 35 -1 40 2 41 21 1 17 -3 21 -17 18 -11 -3 -19 -12 -19 -20 0
-8 -4 -12 -10 -8 -5 3 -7 12 -3 20 3 8 0 15 -6 15 -6 0 -11 -8 -12 -17 0 -15
-2 -15 -7 -3 -4 8 -16 15 -27 15 -11 0 -23 -7 -27 -15 -5 -11 -7 -9 -7 8 -1
17 -7 22 -26 22 -14 0 -28 -7 -31 -15z m36 -15 c0 -11 -4 -20 -9 -20 -6 0 -9
9 -8 20 1 11 5 20 9 20 4 0 8 -9 8 -20z"/>
<path d="M1754 2125 c-4 -8 -4 -21 -1 -29 7 -19 73 -18 92 1 13 13 15 12 16
-4 0 -16 1 -16 9 2 l9 20 0 -20 c1 -17 3 -17 11 -5 8 13 10 12 10 -3 0 -13 4
-16 18 -9 9 4 41 7 70 7 29 -1 47 2 41 6 -8 5 -7 8 2 11 18 7 7 18 -22 23 -27
5 -43 -3 -52 -25 -4 -13 -6 -12 -6 1 -1 19 -38 32 -47 18 -3 -5 -9 -7 -14 -4
-5 3 -26 7 -45 9 -27 2 -40 -3 -51 -18 -11 -16 -16 -18 -26 -7 -11 10 -9 15 6
27 18 12 18 14 3 14 -10 0 -20 -7 -23 -15z m176 -19 c0 -3 -4 -8 -10 -11 -5
-3 -10 -1 -10 4 0 6 5 11 10 11 6 0 10 -2 10 -4z"/>
<path d="M2066 2131 c-3 -5 1 -14 10 -21 11 -10 12 -15 3 -21 -7 -4 5 -7 26
-7 28 0 34 3 24 10 -10 7 -8 8 9 5 16 -4 22 0 22 11 1 12 4 10 14 -7 13 -23
14 -23 24 -5 9 15 11 15 12 4 0 -26 35 -21 36 5 2 20 -1 22 -32 15 -19 -4 -36
-5 -38 -1 -6 9 -48 7 -64 -3 -7 -4 -17 -4 -23 0 -8 4 -7 9 2 15 11 7 10 9 -3
9 -9 0 -19 -4 -22 -9z"/>
<path d="M3000 2131 c0 -5 -3 -16 -6 -25 -4 -11 0 -16 14 -16 11 0 22 -6 25
-12 3 -9 10 -8 26 6 11 11 21 14 21 9 0 -6 18 -10 40 -10 34 1 40 4 40 22 0
16 -6 21 -21 20 -11 -1 -24 -7 -28 -14 -6 -10 -9 -9 -14 2 -5 14 -45 16 -66 2
-6 -3 -11 1 -11 9 0 9 -4 16 -10 16 -5 0 -10 -4 -10 -9z m60 -31 c0 -5 -2 -10
-4 -10 -3 0 -8 5 -11 10 -3 6 -1 10 4 10 6 0 11 -4 11 -10z"/>
<path d="M3210 2128 c0 -6 -7 -8 -15 -4 -9 3 -15 0 -15 -9 0 -8 -1 -18 -2 -22
-2 -5 14 -9 35 -10 22 -1 37 2 37 9 0 9 3 9 12 0 21 -21 38 -14 38 16 0 27 -2
29 -45 30 -25 0 -45 -4 -45 -10z m35 -16 c0 -18 -20 -15 -23 4 -3 10 1 15 10
12 7 -3 13 -10 13 -16z m45 -12 c0 -5 -2 -10 -4 -10 -3 0 -8 5 -11 10 -3 6 -1
10 4 10 6 0 11 -4 11 -10z"/>
<path d="M3440 2108 c0 -22 3 -29 9 -19 6 9 11 10 15 2 11 -17 54 -13 64 5 6
10 14 14 22 9 9 -6 9 -9 -1 -16 -11 -7 -10 -9 3 -9 25 0 34 21 13 32 -13 8
-14 12 -5 18 6 4 -7 7 -29 7 -37 0 -41 -2 -41 -25 0 -14 -3 -22 -7 -18 -4 4
-8 15 -8 24 0 9 -8 18 -17 20 -14 3 -18 -3 -18 -30z m30 12 c0 -5 -4 -10 -10
-10 -5 0 -10 5 -10 10 0 6 5 10 10 10 6 0 10 -4 10 -10z m50 -4 c0 -8 -4 -18
-10 -21 -5 -3 -10 3 -10 14 0 12 5 21 10 21 6 0 10 -6 10 -14z"/>
<path d="M4456 2125 c-10 -28 4 -42 44 -42 42 0 58 18 34 38 -23 19 -71 21
-78 4z m34 -15 c0 -11 -4 -20 -10 -20 -5 0 -10 9 -10 20 0 11 5 20 10 20 6 0
10 -9 10 -20z"/>
<path d="M4695 2130 c-4 -6 -2 -17 5 -24 8 -11 8 -15 -2 -19 -7 -3 1 -4 18 -4
25 2 31 6 31 25 0 12 -3 22 -8 22 -5 0 -9 -4 -9 -10 0 -5 -7 -7 -16 -3 -13 5
-13 7 -2 14 9 6 9 9 1 9 -6 0 -15 -5 -18 -10z"/>
<path d="M4964 2129 c-4 -7 1 -16 12 -22 17 -10 17 -11 -1 -18 -12 -4 -2 -6
25 -4 61 3 60 3 60 23 1 14 3 13 13 -6 10 -17 15 -20 25 -10 7 7 12 8 12 2 0
-5 18 -10 40 -10 23 0 36 3 29 6 -8 6 -7 9 2 13 11 3 11 7 2 17 -9 9 -14 8
-23 -9 -6 -12 -16 -19 -22 -15 -7 4 -6 9 3 15 22 13 5 19 -29 10 -17 -5 -34
-6 -36 -2 -6 9 -48 7 -64 -3 -7 -4 -17 -4 -23 0 -8 4 -7 9 2 15 11 7 10 9 -3
9 -9 0 -20 -5 -24 -11z"/>
<path d="M7690 2126 c0 -8 4 -17 9 -20 5 -4 7 3 4 14 -6 23 -13 26 -13 6z"/>
<path d="M2264 2115 c-7 -17 3 -35 19 -35 7 0 6 4 -3 10 -13 8 -12 10 3 10 21
0 22 16 2 24 -9 3 -18 -1 -21 -9z"/>
<path d="M4553 2097 c0 -25 1 -26 18 -11 12 11 24 14 36 8 10 -4 27 -9 39 -10
17 -2 20 2 16 22 -5 29 -22 32 -22 4 0 -11 -5 -20 -11 -20 -6 0 -8 8 -5 18 5
14 -1 17 -32 17 -35 0 -39 -2 -39 -28z"/>
<path d="M4762 2117 c-6 -7 -8 -18 -4 -24 10 -17 52 -4 52 15 0 8 -3 12 -7 9
-3 -4 -12 -2 -18 3 -9 7 -16 6 -23 -3z"/>
<path d="M4826 2108 c-2 -10 0 -20 4 -23 11 -7 40 5 40 16 0 5 5 9 11 9 8 0 7
-5 -1 -15 -15 -18 -5 -34 11 -18 6 6 18 9 27 6 9 -4 13 -2 9 4 -4 6 -1 14 5
16 10 4 9 8 -2 16 -9 7 -16 7 -18 1 -2 -6 -9 -7 -15 -3 -23 14 -66 8 -71 -9z"/>
<path d="M7527 2113 c3 -7 6 -13 8 -13 2 0 5 6 8 13 3 8 -1 14 -8 14 -7 0 -11
-6 -8 -14z"/>
<path d="M7590 2126 c0 -2 8 -10 18 -17 15 -13 16 -12 3 4 -13 16 -21 21 -21
13z"/>
<path d="M8069 2113 c-13 -16 -12 -17 4 -4 16 13 21 21 13 21 -2 0 -10 -8 -17
-17z"/>
<path d="M8209 2117 c6 -8 7 -18 3 -22 -4 -5 -1 -5 6 -1 10 6 10 11 1 22 -6 8
-14 14 -16 14 -3 0 0 -6 6 -13z"/>
<path d="M8660 2125 c0 -5 5 -17 10 -25 5 -8 10 -10 10 -5 0 6 -5 17 -10 25
-5 8 -10 11 -10 5z"/>
<path d="M8419 2103 c-12 -16 -12 -17 2 -6 12 10 18 10 29 0 12 -10 12 -9 1 6
-7 9 -15 17 -16 17 -1 0 -9 -8 -16 -17z"/>
<path d="M8620 2116 c0 -2 7 -7 16 -10 8 -3 12 -2 9 4 -6 10 -25 14 -25 6z"/>
<path d="M8797 2109 c7 -7 15 -10 18 -7 3 3 -2 9 -12 12 -14 6 -15 5 -6 -5z"/>
<path d="M8835 2100 c3 -5 8 -10 11 -10 2 0 4 5 4 10 0 6 -5 10 -11 10 -5 0
-7 -4 -4 -10z"/>
<path d="M7420 2022 c0 -15 28 -23 36 -9 4 7 4 9 -1 5 -4 -4 -14 -3 -22 3 -8
7 -13 8 -13 1z"/>
<path d="M7506 1993 c-6 -14 -5 -15 5 -6 7 7 10 15 7 18 -3 3 -9 -2 -12 -12z"/>
<path d="M2845 1849 c-17 -6 -15 -8 10 -8 23 -1 31 -6 31 -20 0 -12 -7 -18
-22 -18 -15 0 -21 4 -17 13 3 8 0 14 -7 14 -6 0 -10 -8 -8 -17 2 -12 14 -19
36 -21 30 -3 32 -1 32 26 0 33 -21 44 -55 31z"/>
<path d="M4323 1825 c1 -19 6 -35 12 -35 6 0 11 16 12 35 1 23 -4 35 -12 35
-8 0 -13 -12 -12 -35z"/>
<path d="M5784 1849 c-10 -17 13 -36 27 -22 12 12 4 33 -11 33 -5 0 -12 -5
-16 -11z"/>
<path d="M1365 1830 c-25 -27 -9 -42 41 -38 27 2 39 8 39 18 0 8 -6 14 -12 13
-7 -2 -12 3 -10 9 4 21 -38 20 -58 -2z"/>
<path d="M1716 1838 c-4 -9 -14 -14 -22 -11 -8 3 -14 -1 -14 -8 0 -11 -3 -11
-10 1 -8 13 -10 12 -10 -2 0 -16 -2 -16 -20 2 -16 16 -25 18 -39 11 -12 -7
-22 -6 -31 2 -10 9 -14 9 -17 -1 -4 -10 -8 -10 -20 0 -14 11 -15 10 -8 -12 11
-35 13 -36 30 -14 13 17 14 17 15 2 0 -10 4 -18 10 -18 5 0 14 8 19 18 10 16
10 16 11 0 0 -18 36 -24 95 -18 27 3 27 4 23 37 -3 22 -6 24 -12 11z m-76 -28
c0 -5 -4 -10 -10 -10 -5 0 -10 5 -10 10 0 6 5 10 10 10 6 0 10 -4 10 -10z"/>
<path d="M1756 1842 c-3 -5 -4 -16 -2 -25 3 -20 16 -35 16 -19 0 7 7 12 16 12
8 0 12 -4 9 -10 -3 -5 -1 -10 4 -10 6 0 11 8 12 18 0 14 2 14 9 -3 5 -11 9
-14 9 -6 1 10 4 11 14 2 16 -12 27 -5 27 18 0 14 -2 14 -10 1 -6 -10 -10 -11
-10 -2 0 7 -13 12 -29 12 -17 0 -33 5 -36 10 -7 12 -22 13 -29 2z"/>
<path d="M2010 1840 c-7 -4 -10 -16 -8 -26 4 -22 71 -37 89 -20 8 8 13 8 15 1
3 -6 20 -9 39 -7 31 4 35 7 35 34 0 27 -1 28 -16 14 -8 -9 -20 -14 -25 -11 -5
4 -9 -1 -9 -9 0 -9 -4 -16 -10 -16 -5 0 -10 6 -10 13 0 7 -10 13 -22 14 -11 1
-24 6 -27 10 -8 11 -36 12 -51 3z m40 -25 c0 -8 -9 -15 -20 -15 -11 0 -20 7
-20 15 0 8 9 15 20 15 11 0 20 -7 20 -15z m40 -5 c0 -5 -4 -10 -10 -10 -5 0
-10 5 -10 10 0 6 5 10 10 10 6 0 10 -4 10 -10z m80 0 c0 -5 -4 -10 -10 -10 -5
0 -10 5 -10 10 0 6 5 10 10 10 6 0 10 -4 10 -10z"/>
<path d="M3214 1836 c-3 -8 -11 -13 -19 -10 -7 3 -15 -2 -19 -11 -7 -20 2 -38
15 -30 5 4 31 6 59 7 46 0 50 2 50 23 0 29 -16 41 -35 25 -9 -7 -15 -8 -20 0
-9 14 -25 12 -31 -4z m28 -21 c0 -5 -5 -11 -11 -13 -6 -2 -11 4 -11 13 0 9 5
15 11 13 6 -2 11 -8 11 -13z"/>
<path d="M3331 1818 c0 -28 2 -30 9 -13 7 17 9 17 9 3 1 -27 56 -25 58 1 1 16
-4 19 -30 18 -21 -1 -31 3 -29 11 1 6 -2 12 -8 12 -5 0 -10 -15 -9 -32z m44
-8 c3 -5 1 -10 -4 -10 -6 0 -11 5 -11 10 0 6 2 10 4 10 3 0 8 -4 11 -10z"/>
<path d="M3660 1837 c0 -10 -19 -12 -74 -11 -66 2 -74 0 -69 -14 5 -13 2 -12
-13 3 -10 11 -29 21 -41 22 -19 2 -23 -2 -23 -23 0 -23 2 -25 16 -13 11 9 18
9 22 2 14 -23 69 -19 75 5 4 16 5 16 6 0 0 -10 8 -18 16 -18 8 0 15 -5 15 -11
0 -8 4 -8 13 -2 19 15 56 22 63 12 3 -5 11 -6 17 -2 6 4 24 6 39 5 24 -2 28 2
28 22 0 30 -16 42 -35 26 -9 -7 -15 -8 -20 0 -9 14 -35 13 -35 -3z m30 -22 c0
-8 -4 -15 -10 -15 -5 0 -10 7 -10 15 0 8 5 15 10 15 6 0 10 -7 10 -15z m-45
-5 c3 -5 1 -10 -4 -10 -6 0 -11 5 -11 10 0 6 2 10 4 10 3 0 8 -4 11 -10z"/>
<path d="M4466 1823 c8 -34 14 -42 14 -20 0 8 3 22 6 31 4 11 1 16 -10 16 -13
0 -15 -6 -10 -27z"/>
<path d="M4540 1837 c0 -11 -7 -13 -22 -9 -21 5 -22 4 -8 -13 9 -11 10 -16 3
-11 -7 4 -13 3 -13 -3 0 -6 26 -10 65 -9 37 1 60 5 53 10 -10 6 -10 8 0 8 6 0
12 5 12 11 0 6 -9 9 -20 6 -14 -4 -20 0 -21 11 0 14 -2 14 -8 -2 -7 -17 -8
-17 -24 -2 -14 14 -17 15 -17 3z"/>
<path d="M4660 1835 c-10 -12 -9 -16 5 -21 12 -5 13 -9 4 -14 -7 -5 16 -8 49
-8 53 1 62 3 62 19 0 13 -7 17 -27 15 -16 -1 -34 2 -40 7 -9 7 -13 5 -13 -6 0
-10 -6 -14 -15 -11 -8 4 -15 10 -15 16 0 5 5 6 10 3 6 -3 10 -1 10 4 0 16 -16
13 -30 -4z m90 -25 c0 -5 -4 -10 -10 -10 -5 0 -10 5 -10 10 0 6 5 10 10 10 6
0 10 -4 10 -10z"/>
<path d="M5930 1835 c-10 -12 -9 -16 6 -22 16 -6 16 -7 -2 -14 -13 -5 -8 -7
18 -7 21 1 35 5 32 10 -8 13 10 10 25 -4 7 -7 12 -8 11 -3 -4 21 1 29 9 16 5
-8 21 -15 35 -17 15 -1 24 2 21 7 -8 12 9 11 22 -2 7 -7 12 -5 15 9 5 17 0 20
-33 19 -22 0 -39 -6 -39 -11 0 -6 -4 -5 -9 3 -7 10 -21 12 -55 8 -37 -5 -44
-4 -40 8 8 19 0 19 -16 0z"/>
<path d="M6289 1838 c-1 -7 0 -19 1 -27 1 -11 -2 -10 -15 3 -19 19 -35 21 -35
4 0 -9 -3 -9 -12 0 -19 19 -38 14 -38 -9 0 -13 6 -20 18 -18 9 1 19 0 22 -1
18 -7 63 -4 68 5 11 18 12 44 2 50 -6 3 -11 0 -11 -7z m-74 -28 c3 -5 1 -10
-4 -10 -6 0 -11 5 -11 10 0 6 2 10 4 10 3 0 8 -4 11 -10z"/>
<path d="M6337 1843 c-4 -3 -7 -17 -7 -29 0 -22 3 -23 75 -23 63 0 75 3 75 17
1 16 2 16 13 1 16 -21 80 -32 73 -12 -6 16 6 17 21 2 7 -7 12 -5 15 9 5 17 -1
19 -78 19 -52 -1 -84 -5 -85 -11 -1 -6 -5 0 -9 14 -5 15 -8 18 -9 8 -1 -11 -7
-15 -23 -10 -14 3 -19 2 -14 -6 4 -7 3 -12 -2 -12 -5 0 -12 9 -15 20 -5 20
-18 26 -30 13z m208 -33 c3 -5 -1 -10 -10 -10 -9 0 -13 5 -10 10 3 6 8 10 10
10 2 0 7 -4 10 -10z"/>
<path d="M1898 1833 c-11 -3 -18 -14 -18 -27 0 -19 4 -22 25 -18 18 3 25 11
25 28 0 24 -2 25 -32 17z"/>
<path d="M2996 1824 c-9 -24 -7 -36 4 -29 6 4 17 2 25 -5 10 -8 19 -8 34 0 12
6 21 7 21 3 0 -5 18 -7 39 -5 27 3 41 9 44 21 3 14 -2 18 -25 19 -15 0 -26 -4
-23 -9 4 -5 -1 -9 -10 -9 -9 0 -14 4 -11 8 3 5 -9 9 -27 10 -17 0 -35 -5 -39
-11 -5 -8 -8 -6 -8 6 0 21 -16 22 -24 1z m64 -14 c0 -5 -5 -10 -11 -10 -5 0
-7 5 -4 10 3 6 8 10 11 10 2 0 4 -4 4 -10z"/>
<path d="M6159 1839 c-6 -30 -3 -49 8 -53 10 -4 12 1 7 22 -7 26 -13 40 -15
31z"/>
<path d="M1940 1810 c0 -12 7 -20 18 -20 14 0 15 2 2 10 -13 8 -12 10 3 10 10
0 15 5 12 10 -11 18 -35 11 -35 -10z"/>
<path d="M4290 1820 c0 -5 4 -10 9 -10 6 0 13 5 16 10 3 6 -1 10 -9 10 -9 0
-16 -4 -16 -10z"/>
<path d="M4355 1820 c3 -5 11 -10 16 -10 6 0 7 5 4 10 -3 6 -11 10 -16 10 -6
0 -7 -4 -4 -10z"/>
<path d="M4797 1823 c-13 -13 -7 -33 11 -33 14 0 15 2 2 10 -13 8 -12 10 3 10
10 0 15 5 12 10 -7 12 -19 13 -28 3z"/>
<path d="M5760 1807 c0 -19 10 -27 25 -20 17 6 8 33 -11 33 -8 0 -14 -6 -14
-13z"/>
<path d="M5812 1804 c4 -21 22 -23 26 -1 2 10 -3 17 -13 17 -10 0 -15 -6 -13
-16z"/>
<path d="M7391 1785 c0 -37 1 -38 10 -15 10 23 11 24 23 7 12 -15 15 -15 26
-2 15 18 33 20 27 3 -2 -7 -10 -12 -16 -10 -6 1 -11 -2 -11 -8 0 -14 27 -12
33 3 4 9 8 8 16 -3 10 -13 11 -13 11 0 0 33 -39 57 -59 37 -8 -8 -11 -6 -12 9
0 10 -3 13 -6 7 -2 -7 -11 -13 -18 -13 -7 0 -16 6 -18 13 -3 6 -5 -6 -6 -28z"/>
<path d="M7584 1806 c-3 -8 -4 -23 -2 -33 4 -23 52 -27 69 -6 11 13 10 17 -5
29 -23 16 -36 10 -36 -17 0 -11 -5 -17 -10 -14 -6 3 -7 17 -4 31 7 26 -3 34
-12 10z m56 -32 c0 -8 -4 -12 -10 -9 -5 3 -10 10 -10 16 0 5 5 9 10 9 6 0 10
-7 10 -16z"/>
<path d="M7685 1808 c-14 -38 13 -70 39 -48 10 7 16 8 21 0 3 -5 14 -10 23
-10 15 1 15 2 -1 11 -20 12 -13 31 8 22 8 -3 15 -17 15 -32 0 -15 3 -21 8 -14
10 16 62 35 62 23 0 -24 48 7 50 31 0 11 -40 18 -46 8 -3 -5 2 -9 10 -9 18 0
21 -16 5 -25 -5 -4 -15 7 -22 24 -6 17 -15 31 -20 31 -4 0 -5 -5 -1 -11 4 -7
1 -10 -7 -7 -8 3 -22 1 -31 -3 -10 -6 -19 -5 -23 1 -5 8 -11 7 -21 -1 -11 -9
-15 -8 -20 5 -7 19 -43 22 -49 4z m38 -12 c3 -8 0 -20 -8 -26 -10 -8 -14 -8
-18 2 -10 29 15 52 26 24z m97 -15 c0 -6 -4 -13 -10 -16 -5 -3 -10 1 -10 9 0
9 5 16 10 16 6 0 10 -4 10 -9z"/>
<path d="M8046 1795 c8 -37 24 -57 24 -29 0 11 -7 29 -15 40 -14 18 -15 17 -9
-11z"/>
<path d="M8070 1811 c0 -5 7 -21 15 -37 10 -19 16 -23 19 -13 13 41 14 43 15
22 1 -12 5 -24 9 -27 15 -9 52 6 52 20 0 22 17 16 23 -7 4 -16 10 -19 29 -14
28 9 58 35 40 35 -7 0 -12 5 -12 10 0 21 20 9 26 -15 5 -22 26 -38 23 -17 -4
22 3 24 16 5 11 -16 24 -20 61 -19 28 1 49 7 52 14 2 6 -1 12 -7 12 -6 0 -11
5 -11 11 0 5 5 7 12 3 7 -4 8 -3 4 4 -4 6 -13 9 -22 5 -13 -5 -13 -8 2 -24 9
-11 12 -19 6 -19 -6 0 -14 5 -17 10 -3 6 -11 10 -16 10 -6 0 -8 -4 -5 -9 3 -5
-6 -8 -19 -8 -19 0 -25 5 -25 21 0 16 2 18 9 7 9 -14 41 -9 41 7 0 9 -41 9
-56 -1 -6 -3 -23 1 -38 9 -28 14 -44 13 -103 -5 -19 -5 -35 -6 -38 -1 -3 5
-12 7 -20 3 -9 -3 -15 1 -15 8 0 8 -6 5 -15 -7 -13 -17 -14 -17 -15 -1 0 17
-20 25 -20 8z m177 -33 c-3 -8 -6 -5 -6 6 -1 11 2 17 5 13 3 -3 4 -12 1 -19z
m-97 -4 c0 -8 -4 -12 -10 -9 -5 3 -10 10 -10 16 0 5 5 9 10 9 6 0 10 -7 10
-16z m80 6 c0 -5 -4 -10 -10 -10 -5 0 -10 5 -10 10 0 6 5 10 10 10 6 0 10 -4
10 -10z"/>
<path d="M8480 1785 c0 -19 3 -35 8 -35 4 0 7 16 7 35 0 19 -3 35 -7 35 -5 0
-8 -16 -8 -35z"/>
<path d="M8590 1808 c0 -6 -3 -8 -6 -5 -4 3 -15 2 -25 -3 -12 -7 -20 -7 -24 0
-10 16 -25 1 -24 -23 1 -17 2 -18 6 -4 2 9 9 17 14 17 5 0 9 -8 9 -17 0 -15 2
-16 10 -3 9 13 14 8 12 -11 -1 -4 9 -6 21 -5 19 1 23 7 24 33 1 18 -3 33 -8
33 -5 0 -9 -5 -9 -12z m-5 -18 c3 -5 1 -10 -4 -10 -6 0 -11 5 -11 10 0 6 2 10
4 10 3 0 8 -4 11 -10z"/>
<path d="M7976 1788 c-6 -26 0 -38 20 -38 18 0 19 46 0 53 -9 4 -16 -3 -20
-15z m24 -12 c0 -3 -4 -8 -10 -11 -5 -3 -10 -1 -10 4 0 6 5 11 10 11 6 0 10
-2 10 -4z"/>
<path d="M8626 1787 c-3 -12 -2 -25 2 -29 11 -11 52 3 52 18 0 8 5 14 10 14 6
0 10 -7 10 -15 0 -8 3 -16 8 -16 20 -4 85 -5 75 -2 -7 3 -13 11 -13 19 0 9 6
11 18 7 15 -6 15 -5 3 10 -10 13 -17 14 -26 7 -9 -8 -15 -8 -20 0 -8 13 -25
13 -25 0 0 -5 7 -10 15 -10 8 0 15 -7 15 -15 0 -22 -16 -18 -33 8 -15 23 -47
33 -47 15 0 -5 -9 -4 -19 1 -15 9 -20 7 -25 -12z m24 -11 c0 -3 -4 -8 -10 -11
-5 -3 -10 -1 -10 4 0 6 5 11 10 11 6 0 10 -2 10 -4z"/>
<path d="M8832 1798 c-16 -16 -15 -35 3 -42 21 -8 45 3 45 20 0 8 5 14 10 14
6 0 10 -7 10 -16 0 -8 5 -12 10 -9 7 4 7 13 0 26 -8 15 -15 17 -29 10 -11 -7
-21 -7 -27 -1 -7 7 -14 6 -22 -2z m28 -16 c0 -13 -12 -22 -22 -16 -10 6 -1 24
13 24 5 0 9 -4 9 -8z"/>
<path d="M7510 1792 c0 -4 7 -15 14 -25 12 -16 14 -16 20 -1 10 25 7 30 -14
31 -11 1 -20 -1 -20 -5z"/>
<path d="M7921 1786 c-7 -8 -11 -23 -8 -33 3 -14 6 -12 16 11 13 33 9 43 -8
22z"/>
<path d="M7402 1665 c0 -16 2 -22 5 -12 2 9 2 23 0 30 -3 6 -5 -1 -5 -18z"/>
<path d="M7992 1665 c0 -16 2 -22 5 -12 2 9 2 23 0 30 -3 6 -5 -1 -5 -18z"/>
<path d="M8500 1675 c0 -5 5 -17 10 -25 5 -8 10 -10 10 -5 0 6 -5 17 -10 25
-5 8 -10 11 -10 5z"/>
<path d="M7471 1654 c0 -11 3 -14 6 -6 3 7 2 16 -1 19 -3 4 -6 -2 -5 -13z"/>
<path d="M7630 1661 c0 -6 4 -12 8 -15 5 -3 9 1 9 9 0 8 -4 15 -9 15 -4 0 -8
-4 -8 -9z"/>
<path d="M7755 1660 c-3 -5 -1 -10 4 -10 6 0 11 5 11 10 0 6 -2 10 -4 10 -3 0
-8 -4 -11 -10z"/>
<path d="M8364 1656 c1 -8 5 -18 8 -22 4 -3 5 1 4 10 -1 8 -5 18 -8 22 -4 3
-5 -1 -4 -10z"/>
<path d="M8461 1654 c0 -11 3 -14 6 -6 3 7 2 16 -1 19 -3 4 -6 -2 -5 -13z"/>
<path d="M8810 1666 c0 -2 8 -10 18 -17 15 -13 16 -12 3 4 -13 16 -21 21 -21
13z"/>
<path d="M7751 1564 c0 -11 3 -14 6 -6 3 7 2 16 -1 19 -3 4 -6 -2 -5 -13z"/>
<path d="M7950 1569 c0 -5 5 -7 10 -4 6 3 10 8 10 11 0 2 -4 4 -10 4 -5 0 -10
-5 -10 -11z"/>
<path d="M8101 1564 c0 -11 3 -14 6 -6 3 7 2 16 -1 19 -3 4 -6 -2 -5 -13z"/>
<path d="M7427 1549 c4 -13 8 -18 11 -10 2 7 -1 18 -6 23 -8 8 -9 4 -5 -13z"/>
<path d="M7579 1553 c-13 -16 -12 -17 4 -4 16 13 21 21 13 21 -2 0 -10 -8 -17
-17z"/>
<path d="M8000 1566 c0 -2 8 -10 18 -17 15 -13 16 -12 3 4 -13 16 -21 21 -21
13z"/>
<path d="M8220 1565 c0 -5 5 -17 10 -25 5 -8 10 -10 10 -5 0 6 -5 17 -10 25
-5 8 -10 11 -10 5z"/>
<path d="M8360 1561 c0 -6 4 -13 10 -16 6 -3 7 1 4 9 -7 18 -14 21 -14 7z"/>
<path d="M8619 1553 c-13 -16 -12 -17 4 -4 16 13 21 21 13 21 -2 0 -10 -8 -17
-17z"/>
<path d="M1385 1551 c-3 -6 3 -14 12 -20 10 -5 14 -13 9 -18 -5 -4 -11 -3 -13
4 -5 15 -33 5 -33 -12 0 -8 15 -12 40 -12 27 0 40 4 40 13 0 8 -4 14 -10 14
-5 0 -10 9 -10 20 0 20 -24 28 -35 11z"/>
<path d="M2827 1553 c-4 -3 -7 -17 -7 -29 0 -17 7 -25 26 -30 38 -10 74 10 69
37 -5 27 -16 38 -22 22 -3 -7 -16 -13 -29 -13 -14 0 -22 4 -19 10 7 11 -8 14
-18 3z"/>
<path d="M3337 1553 c-4 -3 -7 -20 -6 -37 0 -25 2 -27 8 -12 7 18 8 18 14 3 8
-21 21 -22 41 -1 26 26 18 39 -9 14 -14 -13 -25 -18 -25 -12 0 7 5 12 10 12 6
0 10 5 10 11 0 6 -9 8 -20 4 -15 -5 -18 -3 -14 9 6 17 2 21 -9 9z"/>
<path d="M4300 1551 c0 -5 6 -11 13 -14 8 -3 6 -9 -8 -20 -26 -20 -14 -33 14
-15 18 11 23 11 30 -1 5 -8 14 -10 21 -6 10 6 8 11 -6 22 -16 12 -17 15 -4 23
8 5 11 12 7 16 -3 4 -13 1 -21 -5 -10 -8 -16 -9 -21 -1 -8 12 -25 13 -25 1z"/>
<path d="M5780 1551 c0 -6 5 -13 12 -17 7 -4 8 -3 4 4 -4 7 -2 12 3 12 6 0 11
-4 11 -10 0 -5 7 -10 15 -10 23 0 18 17 -7 24 -32 8 -38 7 -38 -3z"/>
<path d="M7456 1547 c3 -10 9 -15 12 -12 3 3 0 11 -7 18 -10 9 -11 8 -5 -6z"/>
<path d="M7706 1547 c3 -10 9 -15 12 -12 3 3 0 11 -7 18 -10 9 -11 8 -5 -6z"/>
<path d="M8053 1547 c0 -8 6 -14 14 -14 9 0 10 4 2 14 -6 7 -12 13 -14 13 -1
0 -2 -6 -2 -13z"/>
<path d="M1525 1539 c-4 -6 1 -17 11 -25 18 -15 18 -15 1 -10 -10 3 -16 2 -13
-3 3 -4 22 -7 43 -6 53 3 55 4 48 15 -3 6 -1 10 5 10 6 0 13 -7 17 -16 5 -13
8 -13 15 -2 7 10 11 10 15 1 2 -7 12 -13 21 -13 15 0 15 2 2 11 -12 9 -11 10
7 6 14 -3 23 1 26 12 3 14 -2 17 -30 14 -18 -1 -38 -5 -43 -8 -5 -3 -11 -2
-14 3 -4 7 -42 8 -71 2 -21 -5 -29 1 -15 10 13 8 13 10 -2 10 -9 0 -20 -5 -23
-11z"/>
<path d="M1759 1545 c-3 -5 -5 -19 -5 -30 1 -17 8 -20 55 -21 36 0 58 5 69 15
14 15 15 14 9 -2 -5 -13 -3 -17 5 -15 16 5 24 58 9 58 -5 0 -13 -5 -17 -11 -3
-6 -15 -8 -26 -6 -16 5 -19 2 -14 -16 5 -21 4 -21 -13 2 -19 24 -41 22 -41 -5
0 -26 -19 -15 -22 14 -2 15 -6 23 -9 17z m61 -29 c0 -3 -4 -8 -10 -11 -5 -3
-10 -1 -10 4 0 6 5 11 10 11 6 0 10 -2 10 -4z"/>
<path d="M1934 1523 c3 -24 8 -28 37 -30 19 -1 37 4 41 10 5 8 8 8 8 1 0 -6
14 -10 30 -10 18 0 30 5 30 13 0 7 5 13 10 13 6 0 10 -6 10 -13 0 -9 13 -13
43 -11 58 2 57 2 57 22 0 13 -9 17 -40 18 -22 0 -40 -3 -40 -8 0 -4 4 -7 9 -5
8 2 11 -3 11 -20 0 -3 -9 2 -20 12 -27 24 -80 28 -81 6 -1 -9 -4 -5 -9 9 -4
14 -8 19 -9 12 -1 -9 -8 -11 -22 -7 -15 5 -19 4 -15 -4 4 -6 2 -11 -3 -11 -6
0 -11 7 -11 15 0 8 -9 15 -19 15 -15 0 -19 -6 -17 -27z"/>
<path d="M2996 1534 c-9 -23 -7 -36 3 -29 5 3 17 -2 26 -11 15 -15 17 -15 34
0 19 17 36 22 27 7 -3 -5 12 -8 34 -8 36 1 40 3 39 26 0 14 -3 20 -6 13 -4
-10 -8 -10 -19 -1 -11 9 -15 8 -20 -5 -3 -9 -10 -13 -15 -10 -5 3 -7 8 -5 12
2 4 -10 7 -27 7 -21 -1 -31 -6 -29 -14 1 -7 -2 -10 -8 -6 -5 3 -10 13 -10 21
0 19 -16 18 -24 -2z m61 -26 c-3 -8 -6 -5 -6 6 -1 11 2 17 5 13 3 -3 4 -12 1
-19z"/>
<path d="M3210 1540 c0 -5 -7 -7 -15 -4 -9 4 -15 0 -15 -10 0 -9 0 -19 0 -23
0 -12 53 -13 66 -2 8 7 13 6 16 -2 7 -22 38 -1 38 26 0 34 -33 33 -49 -2 -8
-18 -15 -23 -23 -15 -12 12 -1 35 13 27 5 -4 9 -1 9 4 0 6 -9 11 -20 11 -11 0
-20 -4 -20 -10z m80 -30 c0 -5 -5 -10 -11 -10 -5 0 -7 5 -4 10 3 6 8 10 11 10
2 0 4 -4 4 -10z"/>
<path d="M3440 1518 c0 -23 3 -29 9 -19 5 7 11 9 14 4 7 -11 95 -10 121 2 15
6 17 5 11 -5 -5 -8 -3 -11 4 -9 7 3 12 8 12 12 -1 4 -1 13 -1 21 0 9 -8 12
-25 8 -16 -3 -25 0 -25 8 0 10 -3 10 -15 0 -8 -6 -20 -10 -27 -7 -7 2 -20 -2
-28 -9 -16 -14 -51 -2 -37 13 5 4 12 1 17 -7 8 -13 10 -12 10 3 0 10 -8 17
-20 17 -16 0 -20 -7 -20 -32z m110 -8 c0 -5 -2 -10 -4 -10 -3 0 -8 5 -11 10
-3 6 -1 10 4 10 6 0 11 -4 11 -10z"/>
<path d="M4462 1525 c-11 -23 -10 -27 2 -22 8 3 17 3 21 -1 4 -4 51 -7 106 -8
89 -1 99 1 99 17 0 21 -22 38 -28 21 -2 -8 -11 -7 -28 4 -14 10 -24 12 -24 5
0 -5 -7 -8 -15 -5 -8 4 -15 1 -15 -5 0 -7 -11 -4 -27 6 -15 10 -24 12 -20 6 5
-8 3 -13 -7 -13 -8 0 -17 6 -19 13 -3 6 -6 3 -6 -7 -1 -19 -2 -19 -14 -2 -12
16 -14 16 -25 -9z m98 -15 c0 -5 -2 -10 -4 -10 -3 0 -8 5 -11 10 -3 6 -1 10 4
10 6 0 11 -4 11 -10z m80 0 c0 -5 -2 -10 -4 -10 -3 0 -8 5 -11 10 -3 6 -1 10
4 10 6 0 11 -4 11 -10z"/>
<path d="M4716 1534 c-7 -18 10 -44 28 -43 7 0 6 2 -1 6 -18 7 -16 43 2 43 9
0 15 -9 15 -23 0 -22 4 -23 68 -23 62 1 67 3 67 22 0 12 -3 22 -7 22 -23 1
-47 -12 -51 -27 -4 -14 -5 -14 -6 2 -1 16 -17 22 -48 18 -7 -1 -13 3 -13 9 0
17 -47 11 -54 -6z m169 -13 c3 -5 1 -12 -5 -16 -5 -3 -10 1 -10 9 0 18 6 21
15 7z m-85 -11 c0 -5 -2 -10 -4 -10 -3 0 -8 5 -11 10 -3 6 -1 10 4 10 6 0 11
-4 11 -10z"/>
<path d="M4923 1534 c-8 -21 4 -44 24 -44 15 0 15 2 -3 14 -14 11 -16 17 -7
26 15 16 33 4 33 -21 0 -20 24 -26 36 -8 4 8 9 7 15 -2 7 -11 9 -9 9 5 0 20 0
20 15 0 13 -18 14 -17 14 16 0 19 -3 29 -6 22 -4 -10 -8 -10 -19 -1 -11 9 -14
9 -14 -1 0 -9 -4 -9 -12 -3 -20 16 -78 14 -85 -3z m77 -8 c0 -8 -4 -18 -10
-21 -5 -3 -10 3 -10 14 0 12 5 21 10 21 6 0 10 -6 10 -14z"/>
<path d="M5922 1523 c3 -25 7 -28 43 -28 22 -1 46 3 53 8 7 6 12 6 12 0 0 -5
8 -9 19 -9 13 0 19 7 19 23 0 21 -5 23 -37 21 -20 -2 -39 -10 -43 -18 -5 -11
-7 -9 -7 8 -1 18 -7 22 -32 22 -27 0 -30 -3 -27 -27z m41 3 c6 -14 -1 -26 -14
-26 -4 0 -7 9 -6 20 1 23 12 26 20 6z"/>
<path d="M6154 1520 c-1 -17 3 -30 7 -30 5 0 9 14 9 30 0 39 -15 39 -16 0z"/>
<path d="M6180 1525 c0 -23 2 -25 21 -15 23 13 21 33 -4 38 -12 3 -17 -4 -17
-23z"/>
<path d="M6248 1526 c-4 -18 0 -25 11 -26 9 0 39 -2 68 -4 47 -3 52 -1 56 19
3 16 0 22 -10 18 -7 -3 -13 0 -13 7 0 9 -4 9 -17 -1 -13 -11 -17 -11 -21 -1
-3 10 -7 10 -19 0 -21 -17 -43 -19 -36 -2 3 8 1 14 -5 14 -5 0 -12 -11 -14
-24z m112 -10 c0 -3 -4 -8 -10 -11 -5 -3 -10 -1 -10 4 0 6 5 11 10 11 6 0 10
-2 10 -4z"/>
<path d="M6098 1532 c-25 -5 -23 -37 3 -39 16 -2 18 1 9 12 -8 10 -8 14 2 18
18 6 7 14 -14 9z"/>
<path d="M6398 1523 c-12 -15 -2 -33 20 -33 15 0 15 2 2 10 -13 8 -13 10 2 10
9 0 18 -5 20 -12 2 -6 10 -8 17 -4 9 6 9 11 -1 24 -12 15 -11 16 4 3 10 -7 15
-18 11 -23 -3 -6 0 -9 6 -7 7 3 12 8 12 12 -1 4 -1 13 -1 20 0 16 -78 16 -92
0z"/>
<path d="M5760 1520 c0 -13 32 -28 48 -23 6 3 12 9 12 15 0 7 -5 6 -14 -1 -10
-9 -15 -8 -20 4 -6 17 -26 21 -26 5z"/>
<path d="M7396 1455 c4 -8 8 -15 10 -15 2 0 4 7 4 15 0 8 -4 15 -10 15 -5 0
-7 -7 -4 -15z"/>
<path d="M7447 1449 c4 -13 8 -18 11 -10 2 7 -1 18 -6 23 -8 8 -9 4 -5 -13z"/>
<path d="M7545 1440 c3 -5 8 -10 11 -10 2 0 4 5 4 10 0 6 -5 10 -11 10 -5 0
-7 -4 -4 -10z"/>
<path d="M2839 1268 c-25 -20 -29 -45 -10 -62 22 -20 50 -20 76 0 18 14 19 17
5 42 -18 31 -47 39 -71 20z m59 -30 c4 -21 -33 -44 -44 -26 -4 6 -3 8 2 5 6
-3 16 -2 24 3 12 7 12 12 2 22 -10 10 -17 10 -35 -1 -20 -13 -21 -13 -8 3 17
21 55 17 59 -6z"/>
<path d="M5790 1260 c0 -5 5 -10 10 -10 14 0 12 -27 -2 -33 -10 -4 -10 -7 0
-18 10 -11 12 -10 12 4 0 10 6 20 14 23 12 5 11 9 -5 25 -21 21 -29 24 -29 9z"/>
<path d="M1360 1250 c0 -5 5 -10 11 -10 6 0 9 -7 5 -15 -7 -20 28 -20 48 1 21
21 20 36 -1 32 -10 -2 -17 -11 -15 -18 3 -11 -1 -10 -16 3 -21 19 -32 22 -32
7z"/>
<path d="M1531 1237 c-6 -16 -11 -29 -11 -30 0 -1 34 -3 76 -5 67 -2 75 0 72
16 -2 9 -11 17 -20 17 -9 0 -20 3 -23 7 -11 11 -35 -3 -36 -21 0 -12 -2 -12
-9 4 l-9 20 -1 -20 c-1 -16 -4 -14 -14 10 l-14 30 -11 -28z m129 -17 c0 -5 -4
-10 -10 -10 -5 0 -10 5 -10 10 0 6 5 10 10 10 6 0 10 -4 10 -10z"/>
<path d="M1700 1245 c-10 -12 -9 -16 5 -21 12 -5 14 -9 4 -15 -7 -4 22 -7 64
-7 61 0 79 4 87 17 9 14 9 14 10 -1 0 -10 7 -18 16 -18 9 0 12 -5 8 -11 -4 -7
-1 -10 7 -7 8 2 15 17 17 31 3 26 2 27 -47 24 -41 -3 -51 -1 -52 12 0 14 -1
14 -7 1 -8 -17 -102 -25 -102 -9 0 6 5 7 10 4 6 -3 10 -1 10 4 0 16 -16 13
-30 -4z m75 -25 c-3 -5 -10 -10 -16 -10 -5 0 -9 5 -9 10 0 6 7 10 16 10 8 0
12 -4 9 -10z m135 0 c0 -5 -5 -10 -11 -10 -5 0 -7 5 -4 10 3 6 8 10 11 10 2 0
4 -4 4 -10z"/>
<path d="M3072 1244 c-7 -7 -17 -26 -22 -41 l-10 -28 20 25 c11 14 20 19 20
13 0 -20 50 -16 50 4 0 15 1 15 13 1 10 -15 62 -24 92 -18 6 1 20 1 33 0 17
-1 22 4 22 24 0 30 -16 42 -35 26 -9 -7 -15 -8 -20 -1 -7 12 -30 10 -60 -5
-25 -12 -75 -10 -83 3 -5 7 -11 6 -20 -3z m161 -25 c-17 -17 -37 -1 -22 17 8
10 15 12 23 4 7 -7 7 -13 -1 -21z m-43 1 c0 -5 -4 -10 -10 -10 -5 0 -10 5 -10
10 0 6 5 10 10 10 6 0 10 -4 10 -10z m90 0 c0 -5 -5 -10 -11 -10 -5 0 -7 5 -4
10 3 6 8 10 11 10 2 0 4 -4 4 -10z"/>
<path d="M3321 1228 c0 -28 2 -30 9 -13 7 17 9 17 9 3 1 -26 47 -24 54 2 3 12
1 20 -6 19 -31 -4 -58 2 -52 11 3 6 1 10 -4 10 -6 0 -11 -15 -10 -32z m49 -8
c0 -5 -4 -10 -10 -10 -5 0 -10 5 -10 10 0 6 5 10 10 10 6 0 10 -4 10 -10z"/>
<path d="M3437 1253 c-4 -3 -7 -17 -7 -31 0 -22 2 -23 17 -11 13 11 17 11 20
2 3 -7 13 -13 23 -13 10 0 21 6 23 13 4 10 6 10 6 0 1 -8 14 -13 31 -13 17 0
30 -5 30 -10 0 -16 38 12 43 32 4 14 -1 18 -23 18 -19 0 -30 -6 -33 -17 -4
-14 -5 -12 -6 5 -1 25 -1 25 -34 13 -17 -7 -33 -5 -52 5 -32 16 -30 16 -38 7z
m63 -33 c0 -5 -4 -10 -10 -10 -5 0 -10 5 -10 10 0 6 5 10 10 10 6 0 10 -4 10
-10z"/>
<path d="M3678 1248 c-7 -7 -20 -13 -28 -13 -23 0 -18 -29 5 -33 15 -2 17 -1
6 6 -11 8 -11 10 0 14 8 3 20 3 27 0 11 -4 11 -6 0 -14 -9 -7 -7 -8 9 -5 12 3
31 -2 42 -10 18 -12 21 -12 21 0 0 10 8 14 23 11 12 -2 16 -2 10 2 -7 3 -13
15 -13 27 0 11 -3 17 -7 14 -3 -4 -12 -2 -20 4 -10 9 -18 8 -31 -5 -21 -19
-32 -20 -32 -5 0 5 5 7 10 4 6 -3 10 -1 10 4 0 15 -16 14 -32 -1z m68 -35
c-11 -11 -19 6 -11 24 8 17 8 17 12 0 3 -10 2 -21 -1 -24z"/>
<path d="M5924 1246 c-11 -28 2 -41 46 -47 56 -7 77 -2 83 20 3 14 -2 18 -29
19 -27 1 -32 -2 -28 -16 5 -16 5 -16 -6 1 -13 21 -32 23 -24 2 4 -10 0 -15
-10 -15 -18 0 -19 29 -1 42 6 4 2 8 -8 8 -10 0 -20 -6 -23 -14z m106 -26 c0
-5 -4 -10 -10 -10 -5 0 -10 5 -10 10 0 6 5 10 10 10 6 0 10 -4 10 -10z"/>
<path d="M6200 1245 c-16 -19 -6 -45 17 -45 15 0 16 2 3 10 -12 8 -13 13 -2
30 14 23 1 27 -18 5z"/>
<path d="M2990 1221 c0 -24 1 -24 15 -5 13 17 14 17 15 2 0 -10 5 -18 11 -18
5 0 7 5 4 10 -3 6 -1 10 5 10 7 0 10 6 8 13 -3 6 -17 12 -31 12 -22 1 -27 -4
-27 -24z"/>
<path d="M5766 1235 c-3 -8 -1 -15 4 -15 13 0 22 18 11 24 -5 3 -11 -1 -15 -9z"/>
<path d="M6420 1241 c-14 -4 -60 -6 -102 -5 -72 2 -78 1 -78 -18 0 -14 6 -18
23 -16 12 2 25 10 29 18 5 12 7 12 7 -2 1 -10 6 -18 12 -18 7 0 18 8 25 18 13
16 13 16 14 0 0 -11 8 -18 21 -18 11 0 17 5 14 10 -3 6 -1 10 4 10 6 0 11 -4
11 -10 0 -5 8 -10 18 -10 14 0 15 2 2 10 -8 5 -11 13 -6 17 4 4 13 0 20 -10
17 -22 23 -22 21 3 -2 26 -6 28 -35 21z m-155 -21 c3 -5 1 -10 -4 -10 -6 0
-11 5 -11 10 0 6 2 10 4 10 3 0 8 -4 11 -10z"/>
<path d="M6070 1220 c0 -12 7 -20 18 -20 14 0 15 2 2 10 -13 8 -12 10 3 10 9
0 17 -4 17 -10 0 -5 13 -10 29 -10 24 0 29 4 28 20 -1 11 -8 20 -15 20 -9 0
-12 -6 -8 -17 5 -16 5 -16 -6 -3 -7 9 -25 17 -40 18 -22 1 -28 -3 -28 -18z"/>
<path d="M4663 1160 c1 -16 5 -30 10 -30 11 0 9 48 -3 55 -5 3 -8 -7 -7 -25z"/>
<path d="M4240 1153 c0 -19 3 -24 9 -15 4 8 12 14 16 14 4 0 12 -6 16 -14 5
-7 9 -8 10 -3 0 6 2 18 4 28 4 20 -6 22 -23 5 -9 -9 -12 -9 -12 0 0 7 -4 12
-10 12 -5 0 -10 -12 -10 -27z"/>
<path d="M4420 1162 c0 -11 4 -23 8 -26 10 -6 9 30 -1 40 -4 4 -7 -2 -7 -14z"/>
<path d="M4710 1153 c0 -16 4 -23 8 -18 11 15 32 17 32 3 0 -8 3 -9 8 -3 4 6
14 10 22 10 8 0 18 -4 22 -10 5 -6 8 -3 8 7 0 9 -4 20 -10 23 -5 3 -10 1 -10
-5 0 -7 -6 -10 -12 -7 -7 2 -12 10 -10 16 3 15 -11 14 -26 -1 -9 -9 -12 -9
-12 0 0 7 -4 12 -10 12 -5 0 -10 -12 -10 -27z"/>
<path d="M5160 1162 c0 -11 4 -23 8 -26 10 -6 9 30 -1 40 -4 4 -7 -2 -7 -14z"/>
<path d="M4307 1155 c-4 -8 -3 -16 1 -19 4 -3 9 4 9 15 2 23 -3 25 -10 4z"/>
<path d="M4331 1145 c0 -12 3 -15 6 -6 4 10 7 10 13 1 5 -8 9 -5 12 8 4 16 1
20 -13 19 -12 -1 -19 -9 -18 -22z"/>
<path d="M4402 1150 c0 -14 2 -19 5 -12 2 6 2 18 0 25 -3 6 -5 1 -5 -13z"/>
<path d="M4452 1153 c5 -25 55 -25 61 -1 3 10 1 18 -4 18 -5 0 -9 -5 -9 -12 0
-9 -3 -9 -12 0 -18 18 -40 15 -36 -5z m28 -3 c0 -5 -4 -10 -10 -10 -5 0 -10 5
-10 10 0 6 5 10 10 10 6 0 10 -4 10 -10z"/>
<path d="M4572 1150 c0 -14 2 -19 5 -12 2 6 2 18 0 25 -3 6 -5 1 -5 -13z"/>
<path d="M4594 1155 c4 -24 16 -30 16 -7 0 12 -4 22 -9 22 -5 0 -8 -7 -7 -15z"/>
<path d="M4620 1150 c0 -9 7 -17 15 -17 8 0 15 8 15 17 0 9 -7 17 -15 17 -8 0
-15 -8 -15 -17z"/>
<path d="M4822 1150 c0 -14 2 -19 5 -12 2 6 2 18 0 25 -3 6 -5 1 -5 -13z"/>
<path d="M4844 1155 c3 -21 16 -31 16 -12 0 9 -4 18 -9 21 -5 4 -8 -1 -7 -9z"/>
<path d="M4875 1151 c-3 -7 -3 -16 0 -19 3 -3 5 1 5 9 0 11 2 11 10 -1 9 -13
10 -13 10 0 0 13 1 13 10 0 8 -13 10 -12 10 3 0 9 7 17 15 17 7 0 19 -8 24
-17 9 -16 10 -16 11 3 0 19 -6 21 -45 20 -29 0 -46 -5 -50 -15z"/>
<path d="M5001 1147 c1 -17 2 -18 6 -4 2 9 9 17 14 17 5 0 9 -8 10 -17 0 -15
2 -15 9 2 l9 20 1 -20 c1 -12 4 -15 7 -7 4 9 8 10 18 2 11 -9 12 -7 9 7 -4 14
-16 19 -45 20 -34 1 -39 -1 -38 -20z"/>
<path d="M5107 1148 c9 -10 18 -18 20 -18 1 0 3 8 3 18 0 11 -7 18 -20 18 -18
0 -18 -2 -3 -18z"/>
<path d="M5142 1150 c0 -14 2 -19 5 -12 2 6 2 18 0 25 -3 6 -5 1 -5 -13z"/>
<path d="M4381 1144 c0 -11 3 -14 6 -6 3 7 2 16 -1 19 -3 4 -6 -2 -5 -13z"/>
<path d="M4937 1143 c-4 -3 -7 -11 -7 -17 0 -6 5 -5 12 2 6 6 9 14 7 17 -3 3
-9 2 -12 -2z"/>
<path d="M7360 981 c0 -20 5 -31 14 -31 9 0 12 8 8 25 -7 37 -22 41 -22 6z"/>
<path d="M7620 985 c-6 -14 -10 -28 -10 -29 0 -2 18 -3 40 -4 31 -2 38 1 34
13 -4 8 -1 15 5 15 6 0 11 -7 11 -15 0 -21 18 -19 23 3 4 16 5 16 6 0 1 -20
21 -25 21 -5 0 8 4 7 10 -3 9 -13 12 -12 25 4 15 20 15 20 16 0 0 -18 1 -18 9
1 7 17 9 17 9 3 1 -29 21 -21 21 8 0 19 -4 25 -15 20 -8 -3 -15 -1 -15 5 0 6
-7 3 -16 -6 -15 -14 -18 -14 -40 0 -14 9 -24 11 -24 5 0 -6 -5 -8 -10 -5 -6 4
-24 0 -40 -9 -25 -12 -30 -12 -30 -1 0 26 -20 26 -30 0z"/>
<path d="M7850 984 c0 -30 1 -31 49 -33 44 -1 50 1 48 18 -1 16 -8 20 -37 18
-21 -1 -40 4 -47 13 -10 13 -12 10 -13 -16z m67 -20 c-3 -3 -12 -4 -19 -1 -8
3 -5 6 6 6 11 1 17 -2 13 -5z"/>
<path d="M7450 976 c0 -14 4 -27 8 -30 5 -3 9 8 9 24 0 17 -4 30 -9 30 -4 0
-8 -11 -8 -24z"/>
<path d="M7557 994 c-3 -3 -22 -6 -41 -6 -29 0 -36 -4 -36 -19 0 -10 5 -19 10
-19 6 0 10 5 10 10 0 6 5 10 11 10 5 0 7 -4 4 -10 -4 -6 9 -10 33 -10 36 0 39
2 34 25 -4 25 -13 31 -25 19z"/>
<path d="M7403 970 c-1 -14 4 -20 18 -20 12 0 19 7 19 20 0 13 -7 20 -18 20
-11 0 -18 -8 -19 -20z"/>
<path d="M1390 970 c0 -5 -7 -7 -16 -3 -20 8 -15 -38 7 -60 14 -14 19 -14 37
-1 14 9 18 21 15 35 -5 17 -3 20 7 14 9 -6 11 -4 6 4 -5 7 -14 10 -22 7 -8 -3
-14 -1 -14 4 0 6 -4 10 -10 10 -5 0 -10 -4 -10 -10z"/>
<path d="M2845 966 c-13 -9 -16 -19 -10 -32 7 -17 8 -18 12 -1 3 9 9 17 14 17
5 0 6 -12 3 -26 l-7 -26 27 17 c31 21 32 27 8 48 -22 20 -23 21 -47 3z"/>
<path d="M5765 970 c-4 -7 -2 -16 6 -20 10 -7 10 -11 -1 -24 -18 -23 -5 -32
16 -11 16 16 19 16 29 1 7 -9 15 -16 19 -16 11 0 6 28 -6 33 -10 4 -9 8 2 16
20 14 3 28 -18 15 -13 -9 -20 -7 -28 4 -9 12 -13 12 -19 2z"/>
<path d="M4321 961 c-31 -8 -38 -29 -14 -38 10 -3 21 -10 24 -15 3 -5 14 1 24
12 16 18 17 22 4 34 -8 8 -24 11 -38 7z m26 -23 c-3 -8 -6 -5 -6 6 -1 11 2 17
5 13 3 -3 4 -12 1 -19z"/>
<path d="M4483 962 c-12 -2 -24 -10 -27 -19 -7 -17 10 -43 27 -43 7 0 7 4 -1
12 -17 17 -15 38 3 38 8 0 15 -9 15 -20 0 -11 6 -20 13 -21 93 -5 120 -4 130
5 19 17 37 18 37 2 0 -18 60 -13 72 6 5 8 8 9 8 2 0 -7 11 -14 25 -16 21 -4
25 -1 25 17 0 21 -4 22 -57 20 -36 -2 -61 1 -65 8 -6 9 -10 8 -17 -2 -7 -10
-10 -10 -13 -1 -6 18 -76 -8 -81 -29 -4 -13 -5 -13 -6 2 -1 16 -18 22 -50 18
-7 -2 -10 2 -7 8 8 13 -4 18 -31 13z m147 -36 c0 -3 -4 -8 -10 -11 -5 -3 -10
-1 -10 4 0 6 5 11 10 11 6 0 10 -2 10 -4z"/>
<path d="M6342 954 c-7 -8 -17 -12 -23 -9 -5 4 -9 -1 -9 -9 0 -9 -5 -16 -11
-16 -5 0 -7 5 -4 10 6 9 -10 14 -42 13 -7 -1 -13 4 -13 9 0 5 -12 8 -27 6 -22
-2 -28 -8 -28 -28 0 -17 6 -26 20 -28 20 -4 20 -3 1 11 -20 15 -15 37 10 37 8
0 14 -9 14 -20 0 -11 3 -20 8 -21 4 -1 33 -2 65 -4 l57 -3 0 34 c0 38 0 39
-18 18z m-72 -30 c0 -8 -5 -12 -10 -9 -6 4 -8 11 -5 16 9 14 15 11 15 -7z m80
-4 c0 -5 -2 -10 -4 -10 -3 0 -8 5 -11 10 -3 6 -1 10 4 10 6 0 11 -4 11 -10z"/>
<path d="M1524 945 c-13 -32 3 -46 48 -40 23 3 46 11 50 18 5 8 8 6 8 -8 0
-15 2 -17 9 -6 5 8 11 9 15 3 3 -5 16 -8 28 -7 13 1 31 3 40 4 9 0 19 9 21 19
4 16 5 16 6 0 0 -10 5 -18 10 -18 5 0 17 -3 27 -7 13 -5 15 -3 9 7 -6 10 -4
12 7 7 10 -3 18 1 21 12 4 15 -4 17 -69 17 -40 -1 -72 -5 -71 -10 1 -5 -4 -11
-12 -14 -10 -3 -12 0 -8 11 3 9 2 19 -3 22 -6 4 -10 -1 -10 -10 0 -10 -5 -13
-12 -9 -23 14 -60 10 -73 -9 -7 -11 -18 -16 -24 -12 -18 10 -13 25 12 35 l22
9 -23 0 c-12 1 -25 -6 -28 -14z"/>
<path d="M1860 945 c0 -8 5 -15 10 -15 6 0 10 -5 10 -11 0 -5 -4 -7 -10 -4 -5
3 -10 2 -10 -3 0 -6 16 -10 35 -9 19 1 30 4 24 8 -7 4 -5 8 5 12 9 4 16 -1 19
-11 3 -11 5 -8 6 8 2 24 2 24 16 6 8 -11 18 -17 21 -13 4 4 1 13 -6 22 -11 14
-63 16 -76 2 -3 -3 -13 -3 -21 0 -12 5 -12 7 -1 14 10 7 9 9 -4 9 -10 0 -18
-7 -18 -15z"/>
<path d="M2990 931 l0 -28 73 1 c64 1 72 3 72 20 0 11 -6 21 -12 24 -7 2 -13
-3 -13 -12 0 -9 -5 -16 -11 -16 -6 0 -9 6 -6 14 4 10 -2 13 -19 12 -13 0 -24
-5 -24 -11 0 -5 -5 -2 -11 8 -5 9 -19 17 -29 17 -15 0 -20 -7 -20 -29z m33 13
c9 -9 -4 -35 -14 -28 -5 3 -9 12 -9 20 0 14 12 19 23 8z"/>
<path d="M3166 952 c7 -4 14 -18 17 -32 l4 -25 2 27 c0 14 7 29 14 31 6 3 -1
6 -18 6 -16 0 -25 -3 -19 -7z"/>
<path d="M3614 949 c-4 -7 1 -16 11 -21 12 -7 14 -13 6 -18 -7 -3 2 -7 18 -7
17 0 28 5 24 10 -3 5 4 6 17 2 15 -5 20 -3 16 3 -3 6 -2 13 3 16 5 4 13 -3 16
-15 5 -15 9 -18 15 -9 6 9 13 9 28 1 28 -15 37 -14 23 3 -8 9 -8 16 -2 20 5 4
12 -3 16 -14 3 -11 14 -20 23 -20 15 0 15 2 2 10 -11 7 -12 10 -2 10 8 0 12 5
10 12 -5 14 -44 18 -80 7 -15 -4 -30 -4 -33 1 -6 9 -55 8 -72 -3 -6 -4 -14 -3
-17 2 -4 5 0 12 6 14 8 4 7 6 -4 6 -9 1 -20 -4 -24 -10z"/>
<path d="M5934 945 c-4 -11 -8 -23 -10 -26 -2 -3 15 -6 37 -7 23 -1 45 -4 50
-7 5 -3 18 -1 30 6 12 6 19 7 15 1 -7 -13 44 -13 68 0 13 7 16 7 12 -1 -4 -6
-2 -11 4 -11 17 0 24 30 10 43 -10 9 -14 9 -17 0 -3 -9 -11 -8 -29 3 -17 12
-24 13 -24 4 0 -7 -7 -10 -15 -6 -8 3 -15 1 -15 -5 0 -5 -11 -2 -24 6 -19 13
-25 13 -29 3 -4 -10 -8 -10 -16 2 -9 12 -11 10 -11 -10 l-1 -25 -14 25 c-13
24 -14 24 -21 5z"/>
<path d="M6394 946 c-8 -21 2 -46 18 -46 9 0 9 3 0 12 -17 17 -15 38 3 38 8 0
15 -9 15 -20 0 -28 27 -36 50 -15 18 16 20 16 26 1 9 -23 24 -9 23 22 0 23 -2
24 -8 8 -6 -15 -9 -16 -13 -5 -8 21 -106 25 -114 5z m68 -28 c-9 -9 -12 -7
-12 12 0 19 3 21 12 12 9 -9 9 -15 0 -24z"/>
<path d="M2014 941 c-34 -10 -15 -36 29 -38 21 -1 35 2 32 8 -4 5 -1 9 5 9 7
0 10 6 8 12 -5 14 -42 18 -74 9z m36 -22 c0 -5 -4 -9 -10 -9 -5 0 -10 7 -10
16 0 8 5 12 10 9 6 -3 10 -10 10 -16z"/>
<path d="M3213 935 c-3 -9 -3 -18 -1 -21 3 -3 8 4 11 16 6 23 -1 27 -10 5z"/>
<path d="M3237 928 c-3 -10 -1 -20 3 -23 11 -7 40 5 40 16 0 17 20 9 21 -8 0
-15 2 -15 9 2 6 14 9 15 9 5 1 -9 10 -16 21 -16 11 0 20 7 21 16 0 11 2 12 6
1 5 -11 7 -11 14 0 8 12 11 11 19 -1 9 -13 11 -13 20 0 9 13 14 7 11 -12 -1
-10 13 -10 22 -1 4 3 1 13 -6 22 -11 14 -10 14 5 2 10 -7 15 -17 12 -22 -9
-15 48 -1 59 13 6 10 7 8 4 -4 -4 -12 0 -16 14 -15 10 1 19 8 19 17 0 13 2 13
10 0 11 -18 25 -6 16 15 -4 12 -15 14 -48 10 -23 -3 -46 -11 -50 -18 -6 -9 -8
-8 -8 3 0 12 -13 15 -59 15 -33 0 -63 -3 -67 -7 -10 -11 -26 -10 -20 0 2 4
-17 8 -44 8 -38 0 -50 -4 -53 -18z"/>
<path d="M4823 934 c-3 -8 -1 -20 4 -25 11 -11 43 -2 43 12 0 5 1 12 3 16 1 3
-8 8 -21 9 -14 3 -25 -2 -29 -12z m22 -3 c3 -5 1 -12 -5 -16 -5 -3 -10 1 -10
9 0 18 6 21 15 7z"/>
<path d="M7390 685 c0 -25 3 -45 8 -45 4 0 7 20 7 45 0 25 -3 45 -7 45 -5 0
-8 -20 -8 -45z"/>
<path d="M7430 715 c-10 -12 -10 -18 0 -30 10 -12 10 -15 -1 -15 -10 0 -10 -3
-1 -12 20 -20 40 7 25 32 -9 14 -9 20 -1 22 9 3 9 6 1 11 -6 4 -16 0 -23 -8z"/>
<path d="M7522 718 c-17 -17 -15 -47 4 -55 9 -3 20 0 25 8 12 18 11 22 -4 42
-10 14 -15 15 -25 5z m18 -30 c0 -16 -3 -19 -11 -11 -6 6 -8 16 -5 22 11 17
16 13 16 -11z"/>
<path d="M7593 718 c-5 -7 -8 -19 -7 -25 1 -7 2 -17 3 -21 0 -5 30 -9 66 -9
64 0 65 1 65 28 0 27 -24 47 -36 28 -4 -7 -10 -7 -18 0 -9 7 -16 7 -24 -1 -8
-8 -15 -8 -25 1 -11 9 -17 8 -24 -1z m27 -22 c0 -8 -4 -18 -10 -21 -5 -3 -10
3 -10 14 0 12 5 21 10 21 6 0 10 -6 10 -14z m40 -8 c0 -16 -3 -19 -11 -11 -6
6 -8 16 -5 22 11 17 16 13 16 -11z m50 2 c0 -11 -4 -20 -10 -20 -5 0 -10 9
-10 20 0 11 5 20 10 20 6 0 10 -9 10 -20z"/>
<path d="M7735 685 c0 -25 3 -45 8 -45 4 0 7 20 7 45 0 25 -3 45 -7 45 -5 0
-8 -20 -8 -45z"/>
<path d="M7793 714 c-4 -10 1 -20 13 -27 18 -10 17 -11 -1 -18 -16 -7 -14 -8
10 -6 20 1 32 9 37 22 5 18 6 18 7 -3 1 -13 5 -20 11 -17 6 4 8 10 5 15 -3 5
-1 11 5 15 5 3 10 -3 10 -14 0 -17 6 -21 34 -21 26 0 35 5 40 23 l7 22 9 -21
c12 -31 82 -30 97 2 9 20 8 22 -25 22 -25 0 -36 -5 -39 -19 -3 -10 -9 -16 -15
-13 -5 3 -5 11 2 19 13 16 -3 30 -21 19 -7 -4 -25 -7 -42 -6 -22 1 -27 -2 -18
-11 6 -6 11 -15 11 -21 0 -5 -8 1 -19 12 -19 23 -67 30 -73 11 -2 -6 -11 -7
-22 -3 -19 7 -19 8 -1 14 17 6 17 7 1 13 -11 4 -19 1 -23 -9z m259 -28 c7 4 8
2 4 -4 -12 -19 -36 -15 -29 5 4 11 8 13 11 5 2 -7 9 -9 14 -6z"/>
<path d="M8126 723 c-3 -3 -6 -19 -6 -35 0 -28 1 -28 17 -12 16 15 17 15 24
-2 4 -11 8 -16 10 -11 1 4 3 12 4 17 1 6 3 13 4 18 1 4 6 -3 12 -16 11 -28 44
-26 44 3 0 15 -7 20 -31 22 -18 0 -41 6 -52 12 -10 6 -22 7 -26 4z m24 -17 c0
-3 -4 -8 -10 -11 -5 -3 -10 -1 -10 4 0 6 5 11 10 11 6 0 10 -2 10 -4z m71 -29
c-13 -13 -26 -3 -16 12 3 6 11 8 17 5 6 -4 6 -10 -1 -17z"/>
<path d="M8629 721 c-3 -8 -22 -14 -49 -14 -45 -2 -60 -10 -60 -34 0 -21 30
-15 50 9 l17 22 7 -22 c6 -18 15 -22 47 -22 38 0 51 12 28 26 -8 4 -7 9 2 16
10 7 8 8 -8 5 -15 -3 -23 0 -25 12 -3 12 -5 13 -9 2z m-4 -30 c3 -5 1 -12 -5
-16 -5 -3 -10 1 -10 9 0 18 6 21 15 7z"/>
<path d="M7480 692 c0 -18 4 -32 8 -32 9 0 8 47 -1 57 -4 3 -7 -8 -7 -25z"/>
<path d="M8250 715 c-1 -5 -1 -18 0 -28 1 -10 -4 -25 -10 -33 -9 -10 -9 -14
-1 -14 6 0 14 6 17 14 3 8 14 12 27 9 18 -4 19 -3 7 6 -13 9 -13 11 3 11 9 0
17 -4 17 -10 0 -5 8 -10 18 -9 10 0 12 3 5 6 -18 7 -16 33 2 33 8 0 15 -9 15
-20 0 -32 15 -23 16 10 1 27 -1 30 -20 23 -12 -4 -33 -6 -48 -5 -16 0 -28 -4
-29 -11 0 -7 -4 -3 -9 8 -5 11 -9 16 -10 10z"/>
<path d="M8415 705 c-3 -8 -7 -21 -9 -27 -2 -8 6 -13 20 -13 26 0 26 0 18 33
-7 25 -22 29 -29 7z"/>
<path d="M8460 688 c0 -16 5 -28 10 -28 6 0 10 6 10 13 0 8 3 7 10 -3 11 -17
15 -14 24 20 6 19 5 22 -3 10 -10 -13 -12 -13 -21 0 -9 13 -10 13 -10 0 0 -13
-1 -13 -10 0 -8 12 -10 9 -10 -12z"/>
<path d="M1374 655 c-8 -13 -13 -29 -9 -35 8 -12 45 -13 45 -1 0 5 -9 7 -20 4
-11 -3 -20 0 -20 6 0 6 5 11 11 11 5 0 7 5 4 10 -3 6 4 14 17 19 17 7 18 10 6
10 -10 1 -25 -10 -34 -24z"/>
<path d="M4307 662 c-18 -19 -22 -41 -9 -43 77 -13 105 7 62 44 -25 22 -33 21
-53 -1z m58 -31 c-4 -3 -9 0 -13 6 -5 8 -13 9 -22 3 -20 -13 -30 -12 -30 1 0
5 4 8 9 5 5 -3 12 1 15 10 6 15 8 15 26 -1 11 -10 18 -21 15 -24z"/>
<path d="M1524 656 c-11 -28 3 -42 42 -44 29 -2 35 0 24 8 -12 8 -11 10 8 10
13 0 21 -4 17 -9 -3 -6 19 -10 54 -10 50 1 60 4 64 20 4 14 0 19 -15 19 -10 0
-17 -4 -13 -9 3 -5 1 -12 -5 -16 -5 -3 -10 0 -10 8 0 20 -107 18 -119 -2 -7
-11 -10 -9 -13 9 -4 28 -26 38 -34 16z m141 -26 c3 -5 1 -10 -4 -10 -6 0 -11
5 -11 10 0 6 2 10 4 10 3 0 8 -4 11 -10z"/>
<path d="M1850 655 c-7 -8 -10 -22 -6 -30 8 -21 66 -17 66 5 1 12 3 12 11 -2
5 -10 18 -18 29 -18 10 0 21 8 23 18 4 16 5 16 6 0 1 -13 9 -18 29 -18 21 0
24 2 12 10 -13 8 -12 10 3 10 9 0 17 -4 17 -8 0 -5 16 -9 35 -10 28 -1 35 2
35 17 0 25 -16 30 -73 21 -36 -5 -52 -3 -63 7 -8 8 -14 10 -14 5 0 -17 -38
-20 -66 -6 -32 17 -29 17 -44 -1z m30 -21 c0 -8 -4 -14 -10 -14 -5 0 -10 9
-10 21 0 11 5 17 10 14 6 -3 10 -13 10 -21z m80 -4 c0 -5 -7 -10 -15 -10 -8 0
-15 5 -15 10 0 6 7 10 15 10 8 0 15 -4 15 -10z m140 0 c0 -5 -4 -10 -10 -10
-5 0 -10 5 -10 10 0 6 5 10 10 10 6 0 10 -4 10 -10z"/>
<path d="M4460 642 c0 -20 5 -28 18 -29 13 -1 18 5 16 20 -1 12 -3 25 -3 30
-1 4 -8 7 -16 7 -10 0 -15 -10 -15 -28z"/>
<path d="M4787 656 c-14 -35 -8 -41 42 -43 39 -1 48 2 44 13 -3 8 0 14 6 14 6
0 11 -7 11 -15 0 -8 8 -15 18 -15 14 0 15 2 2 10 -13 8 -12 10 3 10 9 0 17 -4
17 -10 0 -5 13 -10 29 -10 24 0 29 4 28 20 -1 20 -7 21 -87 18 -63 -2 -88 1
-96 11 -9 12 -12 11 -17 -3z m63 -26 c0 -5 -4 -10 -10 -10 -5 0 -10 5 -10 10
0 6 5 10 10 10 6 0 10 -4 10 -10z"/>
<path d="M5021 639 c0 -19 3 -28 6 -21 6 14 33 16 33 2 0 -5 14 -10 30 -10 20
0 30 5 30 15 0 8 5 15 10 15 6 0 10 -7 10 -15 0 -21 47 -19 59 2 5 10 13 14
17 10 5 -5 2 -12 -5 -16 -7 -5 -12 -14 -9 -22 3 -9 7 -9 18 3 8 8 24 12 37 10
14 -3 23 1 23 8 0 7 6 10 14 7 8 -3 17 -1 20 6 3 7 5 6 5 -3 1 -9 10 -16 21
-17 11 -1 18 2 15 8 -4 5 -1 9 4 9 6 0 11 -4 11 -10 0 -5 5 -10 11 -10 5 0 8
4 4 9 -3 5 -1 12 5 16 5 3 10 0 10 -8 0 -7 7 -14 15 -14 8 0 15 6 15 14 0 22
-4 28 -20 26 -8 -1 -67 -3 -130 -5 -67 -1 -118 -6 -122 -12 -5 -7 -8 -7 -8 2
0 7 -14 12 -35 12 -21 0 -35 -5 -36 -12 0 -7 -5 -2 -11 12 -6 16 -12 20 -15
12 -4 -10 -8 -10 -19 -1 -12 9 -14 6 -13 -22z"/>
<path d="M7560 659 c0 -5 5 -7 10 -4 6 3 10 8 10 11 0 2 -4 4 -10 4 -5 0 -10
-5 -10 -11z"/>
<path d="M1404 649 c-5 -8 -3 -9 6 -4 7 4 16 2 22 -6 8 -12 9 -12 6 0 -6 20
-24 25 -34 10z"/>
<path d="M2142 652 c-20 -3 -21 -6 -10 -20 10 -12 10 -14 1 -8 -7 4 -13 3 -13
-3 0 -5 29 -9 65 -9 53 1 65 4 65 17 1 13 3 12 16 -4 l16 -20 -4 20 c-3 16
-11 20 -44 21 -22 0 -47 3 -55 5 -8 3 -24 3 -37 1z m43 -22 c3 -5 1 -10 -4
-10 -6 0 -11 5 -11 10 0 6 2 10 4 10 3 0 8 -4 11 -10z m45 0 c0 -5 -4 -10 -10
-10 -5 0 -10 5 -10 10 0 6 5 10 10 10 6 0 10 -4 10 -10z"/>
<path d="M1750 630 c0 -14 7 -18 30 -18 16 1 27 5 24 10 -3 4 0 8 5 8 6 0 11
4 11 9 0 5 -16 9 -35 9 -27 0 -35 -4 -35 -18z m30 0 c0 -5 -4 -10 -10 -10 -5
0 -10 5 -10 10 0 6 5 10 10 10 6 0 10 -4 10 -10z"/>
<path d="M4505 640 c-7 -12 2 -30 16 -30 6 0 7 5 4 10 -3 6 1 10 10 10 9 0 13
-5 10 -10 -4 -7 17 -10 59 -8 56 2 66 5 66 20 0 10 -7 18 -15 18 -8 0 -15 -7
-15 -15 0 -8 -5 -15 -11 -15 -5 0 -8 4 -4 9 7 12 -17 18 -72 20 -23 1 -44 -3
-48 -9z m95 -10 c0 -5 -4 -10 -10 -10 -5 0 -10 5 -10 10 0 6 5 10 10 10 6 0
10 -4 10 -10z"/>
<path d="M4680 630 c0 -14 8 -18 36 -18 25 0 33 3 23 9 -10 6 -10 9 -1 9 6 0
12 4 12 9 0 5 -16 9 -35 9 -27 0 -35 -4 -35 -18z m30 0 c0 -5 -4 -10 -10 -10
-5 0 -10 5 -10 10 0 6 5 10 10 10 6 0 10 -4 10 -10z"/>
<path d="M2820 570 c0 -21 4 -28 14 -24 8 3 17 13 20 21 5 13 4 14 -8 4 -13
-11 -15 -9 -11 8 2 12 0 21 -6 21 -5 0 -9 -13 -9 -30z"/>
<path d="M2960 573 c0 -18 2 -33 4 -33 9 0 13 39 5 51 -6 10 -9 4 -9 -18z"/>
<path d="M3471 575 c-1 -24 3 -31 18 -31 11 0 17 5 14 13 -3 7 -9 11 -13 8 -5
-3 -11 5 -13 17 -3 18 -5 16 -6 -7z"/>
<path d="M5715 585 c-16 -49 -16 -51 0 -31 8 11 15 15 15 8 0 -6 9 -16 20 -22
18 -10 20 -8 19 17 0 24 -1 25 -9 8 -7 -19 -9 -18 -19 8 -12 30 -19 34 -26 12z"/>
<path d="M5852 570 c0 -19 2 -27 5 -17 2 9 2 25 0 35 -3 9 -5 1 -5 -18z"/>
<path d="M6151 591 c-18 -12 -7 -27 28 -39 25 -9 28 -8 24 8 -3 12 -11 16 -26
12 -16 -4 -19 -2 -14 11 7 19 7 20 -12 8z"/>
<path d="M6311 575 c-1 -23 3 -31 17 -31 10 0 18 8 18 18 0 12 -4 14 -12 7 -9
-7 -14 -4 -17 13 -3 19 -5 17 -6 -7z"/>
<path d="M8554 589 c-3 -6 -1 -15 6 -19 7 -4 9 -14 5 -21 -6 -11 -5 -11 5 -2
10 9 10 15 2 26 -7 8 -9 17 -5 20 3 4 4 7 0 7 -3 0 -9 -5 -13 -11z"/>
<path d="M2770 571 c0 -11 4 -22 9 -25 5 -3 9 6 9 19 0 14 -4 25 -9 25 -5 0
-9 -9 -9 -19z"/>
<path d="M3005 580 c-3 -5 -1 -18 4 -27 9 -16 10 -14 11 10 0 28 -5 34 -15 17z"/>
<path d="M3333 570 c-1 -11 2 -20 7 -20 4 0 7 7 6 15 -3 23 -12 26 -13 5z"/>
<path d="M3440 572 c0 -11 4 -23 8 -26 10 -6 9 30 -1 40 -4 4 -7 -2 -7 -14z"/>
<path d="M5977 583 c-3 -5 -1 -17 4 -28 7 -17 8 -17 8 8 1 27 -4 34 -12 20z"/>
<path d="M8602 570 c0 -14 2 -19 5 -12 2 6 2 18 0 25 -3 6 -5 1 -5 -13z"/>
<path d="M2867 558 c-4 -15 -3 -17 8 -8 10 8 14 7 18 -2 3 -7 6 -4 6 8 1 26
-26 28 -32 2z"/>
<path d="M2917 558 c-4 -15 -3 -17 8 -8 10 8 14 7 18 -2 3 -7 6 -4 6 8 1 26
-26 28 -32 2z"/>
<path d="M3055 569 c-4 -6 -5 -12 -2 -15 2 -3 7 2 10 11 7 17 1 20 -8 4z"/>
<path d="M3076 557 c-4 -15 -2 -16 10 -6 11 9 14 8 15 -2 0 -8 4 -5 9 6 5 11
9 14 9 8 1 -18 18 -16 18 2 0 23 -54 16 -61 -8z"/>
<path d="M3152 560 c0 -14 2 -19 5 -12 2 6 2 18 0 25 -3 6 -5 1 -5 -13z"/>
<path d="M3172 560 c0 -14 2 -19 5 -12 2 6 2 18 0 25 -3 6 -5 1 -5 -13z"/>
<path d="M3193 560 c1 -21 10 -18 13 5 1 8 -2 15 -6 15 -5 0 -8 -9 -7 -20z"/>
<path d="M3222 560 c0 -14 2 -19 5 -12 2 6 2 18 0 25 -3 6 -5 1 -5 -13z"/>
<path d="M3242 560 c0 -14 2 -19 5 -12 2 6 2 18 0 25 -3 6 -5 1 -5 -13z"/>
<path d="M3267 561 c-4 -17 -3 -21 5 -13 5 5 8 16 6 23 -3 8 -7 3 -11 -10z"/>
<path d="M3291 558 c0 -22 1 -22 8 -3 l8 20 5 -20 c5 -18 6 -18 7 3 1 13 -5
22 -14 22 -9 0 -15 -9 -14 -22z"/>
<path d="M3356 572 c-2 -4 -1 -14 5 -22 7 -12 9 -10 9 8 0 23 -5 28 -14 14z"/>
<path d="M3403 564 c-8 -8 -9 -15 -3 -19 6 -3 10 0 10 7 0 9 3 9 10 -2 8 -13
10 -13 10 2 0 23 -12 29 -27 12z"/>
<path d="M3517 563 c3 -7 9 -11 13 -8 5 3 11 -1 13 -7 3 -7 6 -4 6 7 1 14 -5
21 -18 21 -11 0 -17 -5 -14 -13z"/>
<path d="M3560 571 c0 -6 5 -13 10 -16 6 -3 10 1 10 9 0 9 -4 16 -10 16 -5 0
-10 -4 -10 -9z"/>
<path d="M5781 555 c0 -11 3 -14 6 -7 2 6 9 12 14 12 4 0 6 -7 3 -15 -4 -8 -1
-15 5 -15 6 0 10 11 9 24 -3 31 -38 32 -37 1z"/>
<path d="M5831 564 c0 -11 3 -14 6 -6 3 7 2 16 -1 19 -3 4 -6 -2 -5 -13z"/>
<path d="M5871 569 c-1 -25 35 -31 36 -7 2 15 -1 17 -12 8 -10 -8 -14 -8 -18
2 -4 9 -6 8 -6 -3z"/>
<path d="M5953 562 c1 -14 5 -18 11 -12 7 7 6 14 -1 21 -9 9 -12 7 -10 -9z"/>
<path d="M6012 560 c0 -14 2 -19 5 -12 2 6 2 18 0 25 -3 6 -5 1 -5 -13z"/>
<path d="M6033 563 c-3 -8 -3 -17 1 -20 3 -4 6 1 6 10 0 10 5 17 11 17 5 0 8
-4 4 -9 -3 -6 4 -9 15 -8 11 1 20 6 21 12 0 5 4 1 9 -10 8 -19 9 -19 9 2 1 18
-4 21 -35 20 -20 -1 -38 -7 -41 -14z"/>
<path d="M6239 578 c0 -2 -2 -12 -4 -23 l-4 -20 15 20 c15 19 15 19 26 1 8
-15 12 -16 19 -5 5 8 9 16 9 19 0 6 -59 13 -61 8z"/>
<path d="M6370 566 c0 -8 4 -17 9 -20 5 -4 7 3 4 14 -6 23 -13 26 -13 6z"/>
<path d="M6417 572 c-3 -4 1 -13 9 -19 7 -7 15 -9 17 -5 3 4 -1 13 -9 19 -7 7
-15 9 -17 5z"/>
<path d="M7639 568 c7 -9 9 -23 5 -30 -6 -10 -4 -11 7 0 11 10 10 15 -6 30
-17 15 -18 15 -6 0z"/>
<path d="M8200 570 c-9 -6 -10 -10 -3 -10 6 0 15 5 18 10 8 12 4 12 -15 0z"/>
<path d="M8511 564 c0 -11 3 -14 6 -6 3 7 2 16 -1 19 -3 4 -6 -2 -5 -13z"/>
<path d="M8763 565 c0 -8 4 -12 9 -9 4 3 8 9 8 15 0 5 -4 9 -8 9 -5 0 -9 -7
-9 -15z"/>
<path d="M7700 566 c0 -2 8 -10 18 -17 15 -13 16 -12 3 4 -13 16 -21 21 -21
13z"/>
<path d="M8230 566 c0 -2 8 -10 18 -17 15 -13 16 -12 3 4 -13 16 -21 21 -21
13z"/>
<path d="M8416 557 c3 -10 9 -15 12 -12 3 3 0 11 -7 18 -10 9 -11 8 -5 -6z"/>
<path d="M5925 550 c-3 -5 -1 -10 4 -10 6 0 11 5 11 10 0 6 -2 10 -4 10 -3 0
-8 -4 -11 -10z"/>
<path d="M2825 392 c-3 -3 -5 -15 -5 -26 1 -20 2 -20 14 -3 8 10 27 17 46 17
18 0 30 3 26 7 -8 8 -74 12 -81 5z"/>
<path d="M4310 365 c-19 -20 -21 -28 -11 -38 10 -9 11 -8 5 7 -5 13 -4 17 3
13 6 -4 13 3 16 14 3 12 10 18 16 14 6 -3 9 -11 6 -16 -4 -5 1 -9 10 -9 12 0
15 -5 10 -17 -5 -15 -4 -16 7 -5 10 10 7 17 -13 37 l-25 26 -24 -26z"/>
<path d="M5772 378 c-29 -29 -6 -68 40 -68 22 0 28 5 28 21 0 49 -39 76 -68
47z m46 -25 c4 -25 -22 -37 -38 -17 -10 11 -10 17 0 29 17 20 34 14 38 -12z"/>
<path d="M5790 350 c0 -5 5 -10 10 -10 6 0 10 5 10 10 0 6 -4 10 -10 10 -5 0
-10 -4 -10 -10z"/>
<path d="M2990 343 c0 -19 3 -24 9 -15 10 16 21 18 30 4 3 -5 17 -12 31 -16
19 -6 21 -5 10 3 -13 9 -13 11 3 11 9 0 17 -4 17 -8 0 -13 103 -7 108 6 2 7 8
12 14 12 6 0 5 -6 -2 -15 -18 -22 -4 -31 18 -12 10 10 24 17 31 17 7 0 11 5 9
12 -3 8 -27 13 -61 14 -31 1 -54 -2 -52 -7 3 -4 1 -10 -5 -14 -5 -3 -10 0 -10
8 0 10 -13 13 -47 12 -27 -2 -51 3 -55 9 -6 8 -11 6 -18 -4 -6 -10 -10 -11
-10 -2 0 6 -4 12 -10 12 -5 0 -10 -12 -10 -27z"/>
<path d="M3290 355 c0 -8 7 -15 16 -15 8 0 13 4 10 9 -4 5 0 12 6 14 7 3 3 6
-9 6 -14 1 -23 -5 -23 -14z"/>
<path d="M4461 338 c0 -18 3 -27 6 -20 2 6 10 9 16 5 19 -12 49 -14 42 -3 -3
5 1 10 9 10 9 0 16 -3 16 -7 0 -7 42 -9 103 -4 9 0 17 9 18 19 0 14 2 14 8 -3
5 -13 18 -20 41 -21 22 -1 28 1 19 7 -11 7 -11 9 -1 9 8 0 12 5 10 12 -4 12
-72 19 -95 11 -7 -3 -13 -12 -13 -20 0 -8 -5 -11 -10 -8 -6 4 -8 10 -5 15 8
13 -38 20 -54 7 -10 -8 -12 -8 -8 -1 10 18 -52 11 -64 -6 -8 -12 -9 -11 -7 5
2 12 -4 21 -14 23 -14 3 -18 -3 -17 -30z m139 2 c0 -5 -5 -10 -11 -10 -5 0 -7
5 -4 10 3 6 8 10 11 10 2 0 4 -4 4 -10z m110 -6 c0 -8 -5 -12 -10 -9 -6 4 -8
11 -5 16 9 14 15 11 15 -7z"/>
<path d="M4777 356 c-3 -8 0 -22 8 -32 10 -15 16 -16 27 -6 8 6 17 9 20 7 3
-3 8 3 11 15 3 11 1 18 -3 15 -5 -3 -11 -1 -15 5 -9 15 -42 12 -48 -4z m33
-17 c0 -11 -4 -17 -10 -14 -5 3 -10 13 -10 21 0 8 5 14 10 14 6 0 10 -9 10
-21z"/>
<path d="M4890 343 c0 -20 3 -24 9 -14 8 12 12 12 26 -2 9 -10 22 -17 28 -17
7 0 6 4 -3 10 -12 8 -10 10 8 10 13 0 21 -4 18 -9 -3 -5 5 -8 19 -7 19 1 25 7
25 24 0 12 -4 22 -10 22 -5 0 -10 -6 -10 -12 0 -8 -3 -9 -8 -3 -4 6 -20 10
-37 9 -16 0 -38 3 -47 8 -15 7 -18 4 -18 -19z"/>
<path d="M5924 343 c1 -14 8 -28 16 -31 12 -3 12 -2 3 8 -6 7 -9 18 -7 25 3 7
1 16 -4 19 -5 3 -9 -7 -8 -21z"/>
<path d="M6067 363 c-12 -11 -8 -23 9 -23 8 0 13 4 10 9 -4 5 0 12 6 14 9 4 8
6 -3 6 -9 1 -19 -2 -22 -6z"/>
<path d="M2858 353 c6 -2 18 -2 25 0 6 3 1 5 -13 5 -14 0 -19 -2 -12 -5z"/>
<path d="M2900 345 c0 -11 -11 -15 -40 -15 -22 0 -40 -4 -40 -10 0 -5 20 -10
45 -10 41 0 45 2 45 25 0 14 -2 25 -5 25 -3 0 -5 -7 -5 -15z"/>
<path d="M3325 338 c-12 -9 -25 -15 -29 -13 -3 3 -3 2 0 -2 8 -11 63 -10 57 1
-3 4 5 5 17 1 15 -5 20 -3 16 3 -3 6 -2 13 3 16 5 4 13 -4 16 -15 7 -21 8 -21
17 -4 8 13 12 14 18 5 5 -7 22 -14 39 -15 16 -1 28 2 25 7 -3 4 0 8 5 8 6 0
11 6 11 14 0 13 -38 15 -97 5 -4 -1 -10 0 -13 1 -19 10 -66 3 -85 -12z m155
-4 c0 -8 -5 -12 -10 -9 -6 4 -8 11 -5 16 9 14 15 11 15 -7z"/>
<path d="M4858 348 c-6 -15 1 -38 10 -38 4 0 8 11 8 25 2 26 -10 34 -18 13z"/>
<path d="M5031 337 c1 -17 2 -18 6 -4 6 22 25 22 21 0 -2 -13 4 -18 25 -18 21
-1 27 4 27 20 0 18 -6 22 -40 23 -36 2 -40 -1 -39 -21z"/>
<path d="M5120 339 c0 -10 8 -19 18 -21 24 -6 53 3 46 13 -3 5 -1 9 5 9 5 0
12 -6 15 -12 3 -7 5 -4 3 7 -2 16 -10 20 -45 21 -34 0 -42 -3 -42 -17z m40 -5
c0 -8 -5 -12 -10 -9 -6 4 -8 11 -5 16 9 14 15 11 15 -7z"/>
<path d="M5963 344 c-7 -19 7 -36 25 -29 8 3 19 0 24 -7 6 -10 10 -10 18 2 5
8 9 22 7 30 -3 19 -67 23 -74 4z"/>
<path d="M6098 338 c-9 -9 -19 -14 -22 -10 -3 3 -6 1 -6 -5 0 -6 13 -10 29 -9
16 1 27 5 24 10 -3 4 4 5 16 1 16 -5 21 -2 21 11 0 16 1 16 15 -2 13 -16 16
-17 25 -4 9 13 10 13 10 0 0 -9 10 -16 21 -17 16 -2 19 1 11 9 -8 8 -9 15 -1
25 14 16 13 16 -29 4 -18 -6 -32 -6 -32 -1 0 15 -64 6 -82 -12z"/>
<path d="M6262 348 c-13 -13 1 -38 22 -38 6 0 4 5 -4 10 -10 6 -11 10 -2 10 6
0 12 7 12 15 0 18 -12 19 -28 3z"/>
<path d="M4327 326 c-4 -10 -1 -13 8 -9 8 3 12 9 9 14 -7 12 -11 11 -17 -5z"/>
<path d="M1452 280 c0 -19 2 -27 5 -17 2 9 2 25 0 35 -3 9 -5 1 -5 -18z"/>
<path d="M1311 278 c-5 -13 -6 -25 -3 -28 2 -3 7 1 9 8 4 10 8 10 21 0 13 -11
15 -10 9 5 -4 10 -7 23 -7 28 0 18 -21 9 -29 -13z"/>
<path d="M1362 270 c0 -14 2 -19 5 -12 2 6 2 18 0 25 -3 6 -5 1 -5 -13z"/>
<path d="M1380 275 c0 -14 7 -21 20 -22 11 -1 20 4 20 10 0 7 4 6 10 -3 8 -13
10 -13 10 1 0 9 -7 20 -16 23 -8 3 -12 2 -9 -3 3 -5 1 -12 -4 -16 -5 -3 -14 3
-20 12 -10 17 -10 16 -11 -2z"/>
<path d="M1505 280 c-11 -4 -23 -6 -26 -4 -3 2 -4 -8 -1 -23 4 -23 6 -24 15
-7 15 28 15 28 32 14 16 -13 20 -3 7 16 -4 7 -15 8 -27 4z"/>
<path d="M1576 282 c-3 -5 1 -15 9 -22 16 -14 20 -3 6 19 -5 8 -11 9 -15 3z"/>
<path d="M1551 264 c0 -11 3 -14 6 -6 3 7 2 16 -1 19 -3 4 -6 -2 -5 -13z"/>
<path d="M7419 272 c-22 -3 -25 -7 -21 -32 2 -17 8 -30 14 -30 5 0 8 6 7 13
-3 23 1 37 11 37 6 0 10 -12 11 -27 l1 -28 8 25 7 25 11 -25 c6 -14 11 -21 11
-16 1 5 7 3 15 -3 10 -8 16 -9 21 -1 3 5 1 10 -4 10 -6 0 -11 8 -10 18 0 10 3
12 6 5 2 -7 9 -13 14 -13 4 0 6 7 3 15 -7 17 -31 20 -36 5 -2 -6 -12 -3 -23 7
-11 10 -31 17 -46 15z"/>
<path d="M8144 266 c-3 -8 -4 -25 -2 -38 2 -19 5 -17 15 15 10 35 -1 55 -13
23z"/>
<path d="M7556 255 c-10 -28 7 -50 35 -47 4 1 23 2 43 4 29 2 36 6 37 23 0 19
1 19 9 -2 5 -13 12 -23 15 -23 4 0 4 4 0 9 -3 5 -1 12 5 16 5 3 10 1 10 -5 0
-21 26 -40 38 -28 6 6 38 11 71 11 44 0 61 4 61 14 0 7 5 13 10 13 6 0 10 -7
10 -15 0 -8 3 -14 8 -14 19 3 33 -2 27 -11 -3 -5 1 -10 9 -10 12 0 16 10 16
35 0 36 -15 46 -38 23 -9 -9 -12 -9 -12 0 0 17 -30 15 -36 -3 -5 -12 -9 -11
-24 7 -16 21 -18 21 -34 5 -10 -9 -15 -18 -12 -18 22 -5 32 -3 38 6 5 6 8 3 8
-7 0 -12 -8 -16 -32 -14 -22 2 -32 8 -31 17 3 17 -49 22 -59 6 -5 -8 -8 -8 -8
-1 0 6 -13 11 -30 12 -16 0 -30 -4 -30 -10 0 -6 -7 -5 -16 3 -15 12 -19 11
-32 -9 -18 -27 -42 -29 -42 -3 0 12 8 21 23 24 20 4 19 4 -4 6 -16 0 -29 -5
-33 -14z m84 -26 c0 -5 -4 -9 -10 -9 -5 0 -10 7 -10 16 0 8 5 12 10 9 6 -3 10
-10 10 -16z m120 0 c0 -5 -4 -9 -10 -9 -5 0 -10 7 -10 16 0 8 5 12 10 9 6 -3
10 -10 10 -16z m186 -6 c-10 -10 -19 5 -10 18 6 11 8 11 12 0 2 -7 1 -15 -2
-18z"/>
<path d="M7997 263 c-14 -13 -7 -43 12 -53 11 -5 22 -6 25 -2 3 5 19 7 35 6
21 -1 31 3 31 12 0 20 18 17 23 -3 3 -11 5 -7 6 10 1 20 -4 27 -18 27 -11 0
-23 -9 -26 -21 -4 -11 -11 -19 -17 -17 -5 2 -8 8 -6 13 2 6 6 9 11 8 4 -2 7 2
7 7 0 19 -29 10 -35 -11 -4 -11 -14 -19 -23 -17 -25 5 -26 27 0 37 22 9 22 10
2 10 -11 1 -24 -2 -27 -6z"/>
<path d="M8463 263 c17 -4 17 -6 2 -29 -15 -23 -14 -24 7 -24 16 0 19 3 10 9
-10 6 -9 11 4 22 10 8 15 9 12 4 -10 -17 8 -39 27 -32 10 4 15 15 13 29 -3 20
-9 23 -48 24 -25 1 -37 0 -27 -3z m59 -35 c-9 -9 -12 -7 -12 12 0 19 3 21 12
12 9 -9 9 -15 0 -24z"/>
<path d="M8554 240 c1 -16 6 -30 12 -30 6 0 9 13 6 30 -6 39 -19 39 -18 0z"/>
<path d="M8603 263 c17 -4 17 -6 2 -29 -18 -27 -9 -33 11 -6 20 26 17 42 -8
41 -18 -1 -19 -2 -5 -6z"/>
<path d="M8173 244 c-3 -8 -3 -20 0 -28 7 -18 47 -9 47 10 0 19 16 18 24 -1 3
-8 17 -15 31 -15 16 0 25 6 25 15 0 8 5 15 10 15 6 0 10 -8 10 -17 0 -15 2
-16 10 -3 7 11 10 11 10 2 0 -7 8 -12 18 -10 9 1 22 0 27 -4 6 -4 17 -3 25 3
13 7 12 9 -2 9 -11 0 -18 7 -17 18 0 10 3 12 6 5 6 -17 26 -17 21 -1 -5 15
-78 21 -78 6 0 -7 -4 -7 -12 0 -20 15 -149 12 -155 -4z m112 -16 c6 -4 2 -8
-7 -8 -10 0 -18 7 -18 17 0 9 3 12 8 7 4 -5 12 -12 17 -16z m89 1 c-8 -14 -24
-10 -24 6 0 9 6 12 15 9 8 -4 12 -10 9 -15z m-167 -5 c-3 -3 -12 -4 -19 -1 -8
3 -5 6 6 6 11 1 17 -2 13 -5z"/>
<path d="M8152 130 c0 -14 2 -19 5 -12 2 6 2 18 0 25 -3 6 -5 1 -5 -13z"/>
<path d="M8232 130 c0 -14 2 -19 5 -12 2 6 2 18 0 25 -3 6 -5 1 -5 -13z"/>
<path d="M7535 121 c-3 -5 -2 -12 3 -15 5 -3 9 1 9 9 0 17 -3 19 -12 6z"/>
<path d="M7561 114 c0 -11 3 -14 6 -6 3 7 2 16 -1 19 -3 4 -6 -2 -5 -13z"/>
<path d="M7830 119 c0 -5 5 -7 10 -4 6 3 10 8 10 11 0 2 -4 4 -10 4 -5 0 -10
-5 -10 -11z"/>
<path d="M7925 119 c-11 -16 -1 -19 13 -3 7 8 8 14 3 14 -5 0 -13 -5 -16 -11z"/>
<path d="M8093 115 c0 -8 4 -12 9 -9 5 3 6 10 3 15 -9 13 -12 11 -12 -6z"/>
<path d="M8190 121 c0 -7 -4 -9 -10 -6 -6 4 -7 -1 -3 -11 6 -15 7 -15 15 1 6
9 7 19 4 22 -3 4 -6 1 -6 -6z"/>
<path d="M8577 109 c4 -13 8 -18 11 -10 2 7 -1 18 -6 23 -8 8 -9 4 -5 -13z"/>
<path d="M1390 89 c0 -5 -4 -7 -10 -4 -5 3 -10 2 -10 -3 0 -5 14 -9 30 -9 17
0 30 4 30 9 0 5 -4 6 -10 3 -5 -3 -10 -1 -10 4 0 6 -4 11 -10 11 -5 0 -10 -5
-10 -11z"/>
<path d="M4310 75 c-7 -8 -9 -15 -5 -15 4 0 2 -7 -5 -15 -16 -19 -3 -40 16
-24 10 8 11 16 4 29 -7 13 -7 21 0 25 16 10 31 -5 25 -25 -4 -11 1 -20 11 -24
19 -7 33 2 19 12 -6 4 -15 16 -21 26 -14 26 -28 30 -44 11z"/>
<path d="M1524 65 c-9 -22 3 -45 23 -45 15 0 16 2 3 10 -13 9 -13 11 0 20 13
9 13 10 0 10 -13 0 -13 1 0 10 13 8 12 10 -3 10 -10 0 -20 -7 -23 -15z"/>
<path d="M1590 49 c0 -18 4 -28 10 -24 6 4 8 10 6 14 -3 4 1 8 9 8 8 0 15 -6
15 -12 0 -12 4 -13 50 -14 94 -1 120 1 115 9 -4 6 -1 10 4 10 6 0 11 -4 11 -9
0 -4 35 -9 77 -9 51 0 72 2 63 8 -10 7 -11 10 -2 10 6 0 12 5 12 10 0 6 -7 10
-15 10 -8 0 -15 -7 -15 -15 0 -17 -16 -20 -24 -6 -4 5 0 11 6 14 7 3 3 4 -9 4
-13 -1 -23 -7 -23 -14 0 -24 -18 -13 -25 15 -4 15 -10 21 -12 15 -3 -7 -18
-13 -33 -13 -17 0 -33 -7 -39 -17 -9 -16 -10 -15 -8 7 1 16 -4 25 -15 28 -11
2 -18 -2 -18 -10 0 -10 -11 -14 -37 -11 -21 1 -40 -3 -45 -10 -5 -8 -8 -3 -8
12 0 20 -2 21 -15 11 -10 -9 -15 -9 -15 -1 0 6 -4 11 -10 11 -5 0 -10 -14 -10
-31z m250 -9 c0 -5 -4 -10 -10 -10 -5 0 -10 5 -10 10 0 6 5 10 10 10 6 0 10
-4 10 -10z"/>
<path d="M2840 70 c-9 -6 -10 -10 -3 -10 6 0 15 5 18 10 8 12 4 12 -15 0z"/>
<path d="M2990 50 c0 -27 3 -29 36 -28 24 1 38 8 46 21 8 16 8 19 -5 14 -8 -3
-23 1 -34 8 -29 23 -43 18 -43 -15z m34 -11 c-10 -16 -24 -9 -24 12 0 18 2 19
15 9 8 -7 12 -16 9 -21z"/>
<path d="M3206 70 c-2 -8 -4 -23 -3 -32 0 -14 3 -15 14 -6 11 9 16 9 21 0 4
-6 26 -11 50 -10 40 0 42 2 42 30 0 27 -2 29 -17 17 -9 -8 -25 -12 -37 -11
-18 4 -19 2 -6 -15 14 -16 13 -17 -2 -5 -9 8 -14 20 -11 28 6 17 -13 19 -20 2
-4 -10 -8 -9 -16 2 -9 13 -10 13 -15 0z"/>
<path d="M4461 51 c-1 -19 0 -32 2 -30 2 2 11 18 22 34 14 23 15 27 3 17 -13
-10 -17 -10 -21 0 -3 7 -6 -2 -6 -21z"/>
<path d="M4600 51 c0 -31 1 -32 18 -15 16 16 17 16 20 1 5 -23 58 -23 71 1 10
16 10 16 11 0 0 -24 46 -24 59 -1 5 10 13 14 17 10 5 -5 4 -11 -1 -15 -16 -12
-16 -32 0 -26 8 4 15 10 15 15 0 4 7 5 17 2 11 -4 14 -3 9 5 -4 7 -2 12 3 12
6 0 11 -6 11 -12 0 -8 7 -5 15 6 15 20 15 20 16 0 0 -18 1 -18 9 1 7 16 9 16
9 3 1 -20 58 -19 72 3 7 11 9 11 9 -3 0 -11 8 -18 19 -18 14 0 17 6 13 25 -3
19 -9 24 -23 20 -10 -3 -69 -6 -131 -7 -70 0 -116 -5 -120 -12 -5 -8 -8 -7 -8
2 0 7 -14 12 -34 12 -19 0 -37 -6 -39 -12 -3 -7 -6 -3 -6 10 -1 22 -21 33 -21
11 0 -8 -5 -8 -15 1 -13 11 -15 8 -15 -19z"/>
<path d="M5044 68 c-4 -6 1 -17 10 -24 16 -12 16 -13 -1 -17 -10 -2 -1 -4 19
-4 21 0 35 4 32 9 -3 4 0 8 5 8 6 0 11 -5 11 -11 0 -5 5 -7 10 -4 6 4 8 11 5
16 -4 5 -2 9 3 9 6 0 13 -7 16 -16 5 -13 9 -14 21 -4 8 7 15 8 15 3 0 -5 10
-10 22 -10 17 -2 19 0 8 7 -8 5 -11 13 -6 17 4 4 13 0 20 -10 7 -9 19 -17 27
-17 11 0 11 2 -1 10 -10 6 -11 10 -2 10 6 0 12 4 12 10 0 6 -42 8 -105 7 -96
-2 -126 3 -92 16 7 3 6 6 -5 6 -9 1 -20 -4 -24 -11z"/>
<path d="M5799 71 c12 -8 12 -13 3 -24 -10 -12 -10 -16 2 -20 8 -3 20 1 27 9
10 12 8 17 -7 29 -10 8 -23 14 -29 15 -5 0 -4 -4 4 -9z"/>
<path d="M5929 78 c-1 -2 -2 -15 -3 -30 -3 -25 0 -27 36 -26 28 0 38 5 38 17
1 14 2 14 14 -1 7 -10 19 -18 27 -18 11 0 11 2 -1 10 -9 6 -10 10 -3 10 6 0
15 -4 18 -10 10 -16 25 -12 19 5 -4 8 -1 15 5 15 6 0 11 -7 11 -15 0 -8 4 -15
8 -15 5 0 8 10 7 23 -2 13 -8 21 -16 18 -30 -8 -112 -2 -122 8 -10 10 -35 15
-38 9z m26 -37 c-9 -16 -25 -3 -18 15 4 10 9 12 15 6 6 -6 7 -15 3 -21z"/>
<path d="M6141 49 c0 -19 3 -28 6 -21 6 14 33 16 33 2 0 -5 18 -10 40 -10 38
0 40 2 40 31 0 28 -1 29 -16 15 -8 -9 -20 -13 -26 -10 -6 4 -14 0 -19 -7 -6
-10 -9 -8 -9 9 0 12 -4 22 -10 22 -5 0 -10 -5 -10 -11 0 -8 -5 -8 -15 1 -13
11 -15 8 -14 -21z"/>
<path d="M3120 61 c-35 -6 -48 -30 -21 -39 8 -3 11 0 7 7 -4 6 -3 11 3 11 5 0
12 -4 15 -9 3 -5 16 -8 29 -8 18 -1 23 5 22 20 -2 24 -8 26 -55 18z m35 -21
c-3 -5 -10 -10 -16 -10 -5 0 -9 5 -9 10 0 6 7 10 16 10 8 0 12 -4 9 -10z"/>
<path d="M1350 55 c0 -3 10 -16 23 -29 19 -19 26 -21 40 -11 24 17 21 24 -10
22 -18 -1 -27 3 -25 11 1 6 -5 12 -13 12 -8 0 -15 -2 -15 -5z"/>
<path d="M1425 50 c3 -5 10 -10 16 -10 5 0 9 5 9 10 0 6 -7 10 -16 10 -8 0
-12 -4 -9 -10z"/>
<path d="M2873 53 c-17 -6 -16 -20 0 -26 7 -3 19 4 25 14 13 20 4 24 -25 12z"/>
<path d="M4500 45 c0 -9 -4 -13 -10 -10 -5 3 -10 1 -10 -4 0 -6 12 -11 28 -11
21 0 24 2 12 10 -12 8 -10 10 9 10 16 0 22 -4 17 -15 -3 -8 -1 -15 3 -15 8 0
21 23 21 39 0 4 -16 8 -35 9 -26 2 -35 -1 -35 -13z"/>
<path d="M4326 21 c-4 -5 -2 -12 3 -15 5 -4 12 -2 15 3 4 5 2 12 -3 15 -5 4
-12 2 -15 -3z"/>
</g>
</svg>
